<svg xmlns="http://www.w3.org/2000/svg" xmlns:xlink="http://www.w3.org/1999/xlink" width="100%" height="100%" preserveAspectRatio="none" viewBox="0 0 832.414 296.58">
  <defs>
    <clipPath id="clip-path">
      <rect id="Rectangle_57" data-name="Rectangle 57" width="827.594" height="282.11" transform="translate(876.29 1111.892) rotate(-1.005)" fill="none"/>
    </clipPath>
  </defs>
  <g id="Group_1" data-name="Group 1" transform="translate(-876.29 -1097.379)">
    <g id="Vector_Smart_Object_copy_5" data-name="Vector Smart Object copy 5">
      <g id="Vector_Smart_Object_copy_5-2" data-name="Vector Smart Object copy 5">
        <g id="Group_117" data-name="Group 117">
          <g id="Group_116" data-name="Group 116" clip-path="url(#clip-path)">
            <path id="Path_10904" data-name="Path 10904" d="M1665.008,1199.681c.382-1.682-1.216-2.019-1.619-3.749l2.135-1.034c2.245,1.721,3.112,4.574,3.965,7.4.6-.769,1.18-1.585,2.117-2.824.316,2.7.6,4.99.9,7.5l5.911-.182c.975-1.482,1.992-2.965,3.266-4.868a21.123,21.123,0,0,0,.866,2.756c.786,1.646,1.64,3.168,2.594,4.977.626-2,1.16-3.69,1.652-5.3l2.048-.063c.344,1.369.7,2.81,1.174,4.682,1.238.083,2.6.186,3.427.257,2.437,3.095,4.555,5.836,6.6,8.459-.058,1.042-.092,1.818-.162,3.1-2.382,1.114-4.946.467-7.5.788-.613-.755-1.253-1.558-2.172-2.74-.305,2.5-.558,4.76-.838,7.019-1.208,1.634-2.732.4-3.992.922-.638.867-1.235,1.635-1.778,2.354-.654-.778-1.252-1.437-2.2-2.5-.247,2.815-.458,5.12-.668,7.425-2.942-1.288-3.706-6.226-6.67-6.957-.86-2.176-.86-2.176-2.989-1.892-.161.344-.475.644-.471.983.014,4.113.054,8.226.093,12.1.712,1.091,1.271,1.993,1.774,2.8,0,1.815.063,3.555-1.807,3.54-1.457.045-3.9-3.8-5.717-9.285-.8-.266-1.586-.484-2.36-.823-.235-.114-.431-.519-.626-.755l-.026-2.564c-.823-1.16-1.659-2.3-2.482-3.456-2.213,1.52-2.523,4.893-3.625,7.468-1.223,2.845-3.684,2.848-5.371,4.667-.4-.593-.823-1.16-1.241-1.752-1.576.557-1.336,2.51-.858,3.559.773,1.646,2.158,2.716,1.331,5.234-1.783,1.821-3.844.6-5.765,1l-1.8,2.5c-1.777,1.1-2.394-1.547-3.568-2.043-.652.843-1.29,1.613-2.2,2.73-.915-.77-1.858-1.54-3.009-2.5-.57.792-1.343,1.832-2.157,2.946a5.746,5.746,0,0,0,.594,1.676,15.368,15.368,0,0,0,8.988,5.046c1.318,2.549.385,5.53.731,8.471,1.121.716,2.311,1.477,3.446,2.193l.026,2.613c-2.512,4.6-6.754,5.266-9.618,9.057l-10.3.318c-.461.667-.867,1.261-1.572,2.323l-12.152.375c-.7,1.038-1.111,1.631-1.518,2.249-2.571,1.41-5.576-.7-8.381,2.074,2.754,1.778,5.356.73,7.846.8,2.614.089,5.21-.112,7.822-.193l7.808-.241,7.217-.223c.837,1.16,1.255,1.728,1.7,2.367l31.177-.962c.655.851,1.281,1.654,1.936,2.481,4.605-.142,9.21-.284,13.843-.4.432.567.836,1.136,1.562,2.154l5.21-.161c.725.994,1.143,1.562,1.687,2.319,1.226.18,2.589.356,4.214.6.175,1.011.379,2.118.759,4.429.737.8,2.113,2.282,3.392,3.67-.421,4.635-3.018,6.288-4.612,9.072l-3.286.1c-.733.942-1.357,1.76-1.792,2.281l-5.141.159c-.778-.823-1.348-1.459-2.224-2.4-.217,1.725-.37,2.843-.563,4.2-1.587,2.227-3.721.6-5.709,1.144-.6-.732-1.239-1.51-1.907-2.337-.7,1.981-1.4,3.988-2.286,6.531,1.478,2.084,3.235,4.522,5.006,6.96-1.911,2.818-3.713,5.511-5.528,8.2-1.6,1.308-3.336.514-5.4.868-.381.447-1.033,1.169-2.19,2.439l-6.681.206c-.7,1.038-1.111,1.656-1.816,2.694l-15.63.482c-.691,1.038-1.111,1.631-1.586,2.348l-17.224.532c-.651.891-1.275,1.733-1.94,2.625l-24.18.746c-.651.867-1.262,1.684-1.845,2.477-.641-.8-1.281-1.606-2.186-2.715-.887.681-1.828,1.411-3.166,2.445-.223-.259-.792-.871-1.543-1.67-.489.62-1.073,1.34-1.725,2.134-.571-.684-1.169-1.416-1.8-2.171-.366.519-.773,1.089-1.18,1.633-.2.3-.418.787-.625.794q-17.341.571-34.628,1.093c-.461.692-.881,1.285-1.274,1.878-.218.224-.447.643-.681.65-16.166.523-32.346,1.022-48.374,1.517-.556.816-.962,1.409-1.667,2.471l-26.215.809c-.333,1.148-.532,1.856-.718,2.442-4.48.284-8.959.688-13.423,1.165-.124,0-.2.538-.322.833,6.531,1.275,9.115,1.171,13.745-2a15.389,15.389,0,0,0,2.572.066c.641.827,1.282,1.654,1.839,2.363,1.907.933,2.444-1.794,4.125-2.789.679.487,1.621,1.208,3.228,2.393l18.792-.58,1.64-2.4,45.13-1.393c.691-1.038,1.1-1.631,1.5-2.224,1.936-.253,3.9-.919,6,.323.065,1.014.117,2.126.182,3.092-.325.47-.526,1.033-.719,1.038-9.237.333-18.489.619-27.685.9-.665.916-1.275,1.757-1.872,2.55-.613-.755-1.225-1.511-1.837-2.242-.447.667-.854,1.26-1.477,2.2-.528-.54-1.1-1.152-1.917-2l-5.4.167c-.726.264-1.192,3.231-3.181,2.276-.5-.614-1.141-1.393-1.8-2.219-.584.768-1.18,1.609-1.791,2.427l-60.664,1.872c-.61.842-1.221,1.659-1.818,2.476-.432-.616-.864-1.183-1.548-2.13-.5.548-1.047,1.145-1.863,2.066l-7.135.22c-.516-.734-.934-1.3-1.464-2.036l-1.807,2.209-1.782-2.2c-.38.544-.786,1.113-1.193,1.707-.493.257-1,.733-1.491.748-19.355.646-38.738,1.244-58.01,1.839-.651.867-1.249,1.66-1.805,2.379-.71-.849-1.336-1.6-1.809-2.146-2.031-.954-2.44,2.156-4.388,2.628-.555-.467-1.456-1.262-2.538-2.2-.421.545-1,1.289-1.494,1.909l-186.116,5.745c-.613-.828-1.018-1.4-1.492-2.059-.583.792-1.181,1.585-1.818,2.428l-5.141.159c-.627-.8-1.254-1.607-1.839-2.363l-3.409.105c-.692.917-1.316,1.759-1.791,2.378l-12.18.376c-.5-.686-.906-1.279-1.45-2.012-.8.727-1.621,1.5-2.807,2.579-.763-.7-1.665-1.5-2.692-2.434-.448.595-1.045,1.363-1.683,2.206l-3.409.105c-.6-.732-1.225-1.535-1.824-2.267-.624.842-1.249,1.66-2.131,2.824-.9-.626-1.856-1.322-3.1-2.2-.5.451-1.335,1.227-2.535,2.3-.763-.7-1.665-1.5-2.609-2.388-.708.748-1.551,1.621-2.64,2.767-.959-1.035-1.793-1.953-2.6-2.823-.638.842-1.262,1.66-2.131,2.824-.914-.625-1.856-1.322-3.809-2.714l-20.221.624c-.328-1.127-.541-1.822-.74-2.518l4.289-.132c.61-.842,1.221-1.659,1.818-2.452.446.615.851,1.208,1.283,1.751,12.576.8,33.386-.087,39.352-1.7-.127-.286-.227-.719-.393-.835a3.8,3.8,0,0,0-1.586-.483c-10.077.287-20.153.6-30.037.9-.614-.852-1.032-1.42-1.743-2.39l-17.362.536c-.711-.994-1.129-1.562-1.841-2.557l-22.558.7-1.84-2.508-26.036.8c-.7-.971-1.129-1.562-1.59-2.2l-10.31.318c-.654-.827-1.3-1.63-1.95-2.481l-6.873.212c-.627-.828-1.254-1.655-1.909-2.482l-12.07.372c-.446-.615-.864-1.183-1.548-2.13-2.8-.64-5.937.328-9.023-.206-.4-.568-.823-1.136-1.534-2.13l-12.166.375c-.711-.994-1.129-1.562-1.7-2.343-.543.67-1.114,1.341-1.794,2.161-.543-.661-1.155-1.368-1.837-2.194l-8.715.269c-.685-1.092-1.44-2.327-2.25-3.633.148-.3.414-1.247.689-1.28,3.449-.252,6.913-.334,10.363-.562.206-.006.393-.545.6-.841-.406-2.068-1.771-1.107-2.657-1.684-1.032-1.42-2.077-2.84-3.221-4.426-.571.7-1.154,1.439-1.833,2.307l-8.605.266c-.557-.685-1.17-1.488-1.838-2.339l-5.128.158c-.641-.827-1.282-1.654-1.95-2.5l-3.313.1c-.71-.849-1.35-1.628-2.032-2.478l-5.045.156c-.819-2.153-1.582-4.186-2.387-6.291.379-.592.907-1.48,1.448-2.368-1.189-2-2.743-.666-4.163-1.033-1.18,1.658-2.4,3.389-3.593,5.072l-3.45.107c-2.02-2.6-.483-4.292.954-6.394-2.189-1.651-4.327-.883-6.331-.555-.639.746-1.2,1.392-2.094,2.412-.2-1.736-.317-2.87-.482-4.2,1.094-.59,2.093-1.129,3.324-1.772-.438-1.148-.861-2.248-1.312-3.371,1.219-1.877,2.789-.207,3.922-1.089l2.2,2.715c.248-1.363.47-2.483.68-3.554-2.009-1.511-4.136-2.413-5.4-5.5,1.012-.539,2.179-.769,2.981-1.689.911-1.044,1.641-2.277,3.048-1.812,1.884,1.442.306,4.467,1.3,6.638.826,1.451,2.052.324,3.141.6l.065,6.483c.677.342,1.437.73,2,1.027,2.162-1.107,2.592-4.8,4.829-5.255,1.866-.4,2.725-2.48,3.488-4.584.153-3.925-3.48-4.2-3.557-7.827l2.832-.087a23.305,23.305,0,0,1,.643-3.141c.414-1.223,1.008-2.354,1.505-3.507-.989-1.228-1.755-2.221-2.465-3.118-.977,1.361-1.8,2.5-2.577,3.564l.063,6.29c-.484-.275-.982-.575-1.6-.894l-.08-8.007c.167-1.143,2.347-1.815,1.032-5.4-.182-.285-.977-1.446-1.786-2.607-1.768.563-2.194,3.383-4.616,4.595l-2.419.075c-.651.867-1.276,1.709-2.008,2.7a40.424,40.424,0,0,1-2.507-4.593c-.917-2.295-1.384-5.015-2.409-7.185-.969-2-2.427-3.482-3.752-5.3l-5.444.168c-.951-1.64-2.043-3.542-2.9-5.041l-2.419.075c-.271-.984-.543-2.064-.972-3.672,1.319-1.493,2.665-3.034,3.7-4.228l-.057-5.733c.568-.913,1.123-1.8,1.651-2.664-.587-.9-1.159-1.779-1.648-2.514-.269-2.145.424-4.345-.969-6.189-.573,1.833-1.093,3.518-1.653,5.278-.792-2.153-1.54-4.163-2.4-6.508.3-.493.811-1.38,1.325-2.267-.531-.831-1.1-1.684-1.662-2.538l-.049-4.935c.477-.426.923-1.19,1.391-1.2,6.886-.285,13.76-.473,20.29-.675.745-1.112,1.138-1.7,1.843-2.743l7.409-.229c-.346-2.99-2.114-3.807-3.054-5.641.27-.516.522-1.468.81-1.5,4.6-.239,9.21-.333,13.815-.475.587-1.785,1.148-3.472,1.842-5.574,2.313,1.623,4.473,3.129,6.744,4.7,2.047-1.563,4.367-3.329,6.769-5.17.737,2.2,1.317,3.88,1.856,5.46l1.828-.056c1.455-1.642.539-3.84.846-6.148.6-.938,1.354-2.147,2.193-3.48,1.29-.258,2.649-.517,3.966-.776.244-.37.612-.648.623-.963.008-3.291-.038-6.6-.071-9.871.568-.913,1.123-1.825,1.678-2.714-.85-1.159-1.673-2.3-2.538-3.5-.6.817-1.208,1.634-1.818,2.476-1.4.043-2.859.088-4.027.2-.547-1.1-1.028-2.388-1.536-2.4-1.279-.033-2.745-.811-3.867,1.087,1.456,2.617,3.446.813,5.4,1.309a56.17,56.17,0,0,0-2.489,6.852l-2.626,1.412c-.133,1.867-.278,3.832-.41,5.8-1.164,1.875-2.7.616-4.046,1.093-.627-.828-1.268-1.631-1.908-2.458l-3.643.112c-.244-1.009-.543-2.064-.973-3.769,1.916-2.334,3.886-4.718,5.394-6.531l-.036-3.58c-1.174-1.924-2.69-.885-4.053-1.012a33.1,33.1,0,0,0-3.464.083l-4.193.129c-.255,3.42,1.42,1.771,2.949,4.724-.258-1.033-.009.436.484,1.7.2.526.941.6,1.439.9l.086,8.588c.572.853,1.158,1.707,2.079,3.033-1.234.353-2.194.624-3.373.951-.25-1.638-.426-2.77-.6-4.071-1.324-1.822-2.76-3.786-4.057-5.61-.923-.214-1.7-.432-2.73-.69l-.079-7.959c-1.116-1.587-1.911-2.748-2.679-3.862l-3.492.108c-2.05,2.652-.02,6.244-1.064,9.131-.478.305-.956.61-1.448.916l-.061-6.1c-.545-.83-1.13-1.659-1.843-2.75,1.208-1.562,2.43-3.172,3.937-5.106-.606-1.457-1.2-2.649-1.648-3.966s-.77-2.735-1.141-4.054c-1.727-.818-1.9-.691-2.907,2.171-.492.281-1.315.476-1.38.89-.219,1.483.553,1.725,1.4,1.6.177,2.632-1.924,2.891-2.258,5.248-1.463-1.891-2.689-3.474-3.942-5.105l-3.849.119c-.138-1.375-.275-2.774-.427-4.2a16.12,16.12,0,0,0,11.434-8.968c1.911,1.3,3.364,2.268,4.638,3.124,2.762-2.989-.448-7.657,2.07-10.276.837,1.16,1.673,2.32,2.5,3.456-.616,1.665-2.5,2.546-1.083,5.817,1.87,1.346,4.483.031,7.526.445.732-1.087,1.693-2.545,2.235-3.36.461-4.781-2.526-5.052-3.04-8.376.379-.617,1.11-1.752,1.773-2.813,3.327-2.837,5.645,3.5,9.742.667-.082.075.789-.847,1.932-2.092.931.963,1.82,1.88,2.834,2.913l4.839-.149c.938-1.045,1.795-2.04,2.23-2.513,2.309-.144,3,3.949,5.353,1.771.13-.8.311-1.921.519-3.138-.933-1.157-1.8-2.219-2.868-3.517-2.466-1.811-4.268,2.237-6.6,2.672-.752-.945-1.393-1.772-1.992-2.576-.6.841-1.221,1.683-1.79,2.475-2.44.8-3.7-4.411-7.3-1.444.231-.273-.422.473-1.169,1.319-.749-.606-1.622-1.305-2.842-2.308-.735.773-1.62,1.671-2.736,2.795-.547-1.048-1.22-2.334-1.963-3.811.737-.531,1.788-1.314,2.853-2.072-.447-2.091-1.839-1.056-2.685-1.756a18.394,18.394,0,0,1-1.7-1.883c-.569.84-.976,1.458-1.463,2.175l-2.2-2.594-8.193.253c1.054-.468,7.393-3.3,7.762-3.458-1.343-.9-2.436-1.619-3.53-2.359,1.067-3.324,3.906.1,5.247-3.332-2.846-1.388-5.7-.308-8.448-.514-2.45-.215-5,.88-8.427-1.143,3.5-1.705,6.1-1.035,8.54-1.353,1.061-1.194,2.081-2.339,3.237-3.633-3.192-2.9-6.267.314-8.987-2.142.513-.935,1-1.8,1.581-2.832-1.135-.739-2.284-1.478-3.418-2.193l-.026-2.613c1.392-1.083,2.811-2.192,4.844-3.779l4.4-.136c.665-.867,1.289-1.709,1.981-2.626l17.225-.532c.637-.891,1.262-1.733,1.885-2.6l36.415-1.124c.406-.618.813-1.211,1.6-2.4,4.986-.589,10.435-.2,15.82-.779.434-.594.827-1.211,1.531-2.249l36.456-1.125c.7-1.038,1.1-1.631,1.8-2.669l62.506-1.929c.7-1.038,1.1-1.631,1.775-2.644l189.236-5.841c.691-1.013,1.084-1.606,1.586-2.324l55.564-1.715c.5.589,1.141,1.392,1.782,2.171.8-.9,1.646-1.842,2.638-2.985,1.07,1.128,1.918,2.046,2.863,3.033l166.472-5.138c.446.615.878,1.183,1.589,2.2l27.782-.857,1.868,2.556,10.42-.322c.711,1.019,1.143,1.586,1.66,2.32l12.523-.386c1.427,2.448,3.078,5.277,4.379,7.536l7.629-.235c2.089,2.694.373,4.32-.805,6.147l.049,4.887c-2.161,2.511-3.147,7.09-6.684,6.764.274,2.7,1.61,4.306,2.575,4.47,1.736.334,2.306.921,2.62,3.5.209,1.639,1.748,2.9,2.376,3.871,3.349.792,2.181-3.31,3.473-4.753.57.66,1.169,1.367,1.878,2.168l5.1-.157c.944-.537,1.21-2.82,2.657-2.478.2.672.321,1.853.6,1.942,1.048.307,1.2-.787,1.135-2,1.061.234,1.588-.7,1.686-1.939.107-1.673-.115-3.263-1.736-3.044-.2-.7-.391-1.972-.625-1.989-2.462-.093-4.1-4.447-7.928-2.127-.2.3-1.125,1.632-1.965,2.868.784,1.355,1.259,2.163,1.987,3.4-1.124.349-1.892.591-2.577.83-2.2-2.376-.194-5.632-1.1-8.169-.534-1.145-1.068-2.29-1.855-4.008l4.138-.128c3.315-4.047-1.706-5.586-.678-8.715,1.92-1.923,1.92-1.923,4.158.5.763-.7,1.553-1.452,2.684-2.5,1.012.816,2.149,1.724,3.66,2.936.721-.724,1.593-1.6,2.682-2.7.228.816.83,1.91.659,2.666-.541,2.291-1.512,4.209-3.263,5.061-.291-1.588-.2-3.5-1.682-1.787a15.375,15.375,0,0,0,1.682,1.787c-.693,3.627,1.819,5.921,2.457,9.24a35.459,35.459,0,0,0,1.586,4.621,5.832,5.832,0,0,1,2.557,1.325c.946,1.084,1.753,2.027,3,1.529,1.673,2.32,3.319,4.616,5.145,7.149.557-.622,1.115-1.293,1.754-2.038,1.838-.468,3.838-1.207,5.258,1.895l5.237-.162c.5-.62,1.1-1.462,1.887-2.478.672,1.189,1.385,2.426,2.422,4.281l.046,4.62c1.167,1.2,2.556,2.607,3.6,3.688l.068,6.8c1.627,1.837,3.63,4.123,5.591,6.337-.382,1.682-.646,2.779-.909,3.972-.78-.968-1.392-1.724-1.991-2.455-.6.769-1.181,1.561-1.778,2.33-.879-1.231-1.715-2.367-2.538-3.527l-.025-2.516c-1.449-1.94-2.9-3.9-4.376-5.89-.958.489-1.21,2.748-2.616,2.4.03-2.518-1.6-3.242-2.562-4.591-.377-.545-1.486-.051-2.118-.031-1.311,3.67-.048,6.245.955,8.876-1.193,1.707-2.732.447-4.074,1-1.262,3.04-1.58,7.018-5.208,8.654,1.934.86,2.942,1.289,3.923,1.742.372,1.416.771,2.832,1.185,4.368.448-.595,1.049-1,1.085-1.485.108-1.625.023-3.243.009-4.646,1.271-2.169,2.823-.934,4.208-1.388.613.78,1.24,1.583,1.895,2.434l6.86-.212c.64.779,1.253,1.583,1.838,2.315l1.792-2.281c1.115,1.538,2.061,3.953,3.2,4.16,1.818.331,2.789,2.552,4.388,2.889a10.886,10.886,0,0,0,2.667-.058c.584-.744,1.194-1.586,1.9-2.527l1.608-.05a8.3,8.3,0,0,0,1.732-.1c.233-.056.393-.569.639-.746,1.581-1.38,3.177-2.711,4.8-4.092.363.5.767,1.065,1.367,1.918l4.468-.138c2.009,1.487,3.63,2.7,5.25,3.9-1.612,2.421-3.861,4.451-4.644,7.282a15.079,15.079,0,0,1-3.262,6.586c-1.922.374-2.635-.911-2.32-3.752-.807-.991-1.671-2.078-2.645-3.282l-5.554.171c-.409,1.707-.738,3.169-1.135,4.8-.765-.92-1.378-1.676-2.032-2.5l-5.224.161c-.718,1.135-1.489,2.369-2.4,3.8,1.094.716,2.2,1.457,3.28,2.149-.328,1.583-1.905,2.019-1.583,4.017-2.7-.788-4.318,2.723-6.552,3.469.569,1.918,1.07,3.911,1.763,5.777.183.478.913.528,1.3.468.3,1.563.2,3.5,1.7,1.763a12.884,12.884,0,0,0-1.7-1.763,32.861,32.861,0,0,0,.074-3.632c1.044-1.508,2.251-3.167,3.4-4.92.135-.2.02-.751.016-1.162l4.536-.14c.289-1.34.6-2.777.934-4.215a3.323,3.323,0,0,1,4.814.093l-1.473,2.61c.511,1.606,2.266,2.447,1.6,4.96-.541.888-1.124,1.777-1.692,2.69l.062,6.169a2.75,2.75,0,0,0-1.632.389c-.291-1.564-.186-3.5-1.7-1.763a16.08,16.08,0,0,0,1.7,1.763,23.48,23.48,0,0,0-1.655,3.632c1.952,2.7,3.974,5.491,6.233,8.616,1.166-3.085.2-6.419.966-9.3a12.991,12.991,0,0,0,1.224-4.1c.071-1.164-.626-2.159-1.682-1.836.2-2.329-.543-4.823.614-7.351.6.659,1.182,1.294,1.891,2.071l1.793-2.209c.538,1.581,1.077,3.161,1.586,4.646a14.864,14.864,0,0,0,2.64-2.743c.3,1.563.2,3.5,1.7,1.763a13.807,13.807,0,0,0-1.7-1.763m-694.013,9.056c-1.342.6-2.691.446-1.5,2.587.406-.69.8-1.38.53-2,1.342-.574,2.691-.446,1.5-2.587-.406.69-.811,1.38-.53,2m649.617,35.654c-.418-1.923-.313-3.862-1.8-2.122.473.566.946,1.132,1.369.732.418,1.923.3,3.862,1.8,2.122-.473-.566-.946-1.132-1.369-.732m-659.524,64.422c-1.109.494-2.693-1.127-3.312,1.554,2.32,1.017,2.32,1.017,3.118-1.766.125.141.237.307.362.473l1.385-1.785c-.181-.26-.363-.521-.544-.758a7.3,7.3,0,0,0-1.009,2.282m671.225-68.679c.4,1.923.314,3.862,1.809,2.122a5.13,5.13,0,0,0-1.6-1.427l-.063-6.29c-1.564-1.041-3.142-2.081-5.025-3.354l.063,6.362c.781,1.065,1.6,2.225,2.4,3.362a3.052,3.052,0,0,0,2.412-.776m-14.469-85.893c-2.841.523-1.019-4.3-2.827-4.9-1.329.477-2.854-.783-4.019,1.044-.061.8-.122,1.577-.2,2.426,1.33,3.71,4.235,4.08,6.774,6.349.105-1.842.186-3.369.2-4.918,1.759-1.53,1.759-1.53.956-4.8-1.847.977-.67,3.191-.887,4.795m-17.5,97.188c-1.626,1.067-3.12,2.9-4.524,2.753-1.914-.231-2.8,1.95-4.253,2.382-.474-.639-.878-1.183-1.255-1.7l-19.548.6c-.921,1.456-1.665,2.641-2.491,3.949.314,1.176.6,2.256.871,3.24l1.911-.059q.9-1.226,1.831-2.525l25.94-.8c.809-1.6,2.286-2.466,2.63-5.115-.254-.646-.648-1.577-1.113-2.724m14.066-2.878c-2.03,4.709-5.1,1.827-7.222,3.828-1.351,1.058-2.729,2.117-4.189,3.275.26,1.2.491,2.308.721,3.366,1.282-1.1,2.386-2.058,3.381-2.911.975,1.228,1.6,2.032,2.215,2.835l5.127-.158c.624-.842,1.208-1.634,1.778-2.378.64.755,1.224,1.438,1.642,1.909,1.077-.977,1.962-1.827,2.875-2.654.918,1.012,1.571,1.742,2.239,2.5a13.7,13.7,0,0,1,2.564-2.136,16.473,16.473,0,0,1,3.237-.826c.1-.027.146-.561.2-.78-.809-1.185-1.619-2.346-2.4-3.459l-3.464.107c-.641-.8-1.24-1.583-1.811-2.316-.665.892-1.289,1.71-1.86,2.429-1.747-.091-3.621.959-5.031-2.628m-17-79.112c1.6-1.017,2.569-1.628,3.539-2.239,1.817-1.193,2.793,1.559,4.5,1.966.112-1.189.211-2.305.325-3.3a35.223,35.223,0,0,1-3.125-4.453,22.408,22.408,0,0,1-1.186-4.513l-4.042.125c-.458-1.8-.8-3.218-.988-3.962-1.145,1.027-2.317,2.1-3.052,2.8.123,2.706.194,4.277.261,5.485,1.771,2.535,3.66,4.388,3.766,8.087m-647.8,117.345c1.3-.476,2.826.76,4.4-1.491-.814-1.645.851-4.285-1.078-6.065l-5.114.158c-.638.842-1.221,1.635-1.777,2.4-.7-.85-1.336-1.6-1.976-2.383-1.168.133-2.294.24-3.406.468-.233.056-.393.569-.651.915,1.892,2.168,2.987,5.812,5.8,6.282.72-.917,1.33-1.735,2-2.6.585.732,1.2,1.512,1.811,2.316m639.583-126.7c-1.963.375-3.966-.628-5.93,1.054a18.464,18.464,0,0,1,1.575,3.533c.375,1.8-.455,4.055,1,5.486,1.894-.4,3.9.606,5.875-1.052l-.054-5.467c-.907-1.3-1.688-2.464-2.469-3.554m-623.46,59.824c-.158,3.49,2.532.212,2.885,2.452.344,1.393.674,2.81,1.018,4.2,1.548-.58,3.059.656,4.55-1.52-.1-1.521-.213-3.43-.4-5.311-.031-.338-.363-.594-.517-.831-2.351.073-4.619.118-6.9.237-.22.007-.408.5-.639.77m-51.9,51.741c-.273-1.129.655-3.287.572-3.285-2.833,2.749-4.508,4.374-6.033,5.849.6,2.643-.322,4.971,1.287,6.324,1.329-.477,2.882.806,4.019-1.019.868-2.543-.436-3.737-1.5-5.181.541-.888,1.083-1.751,1.651-2.688m51.819,54.42c-.756,1.427-2.068,2.242-2.362,4.477,1.284.565,1.6,3.266,3.316,2.995,3.889-4.355,4.209-5.381,2.386-7.551-1.113.034-2.227.069-3.341.079m-30.026-46.333-3.725.115a8.814,8.814,0,0,1-1.5,2.466c-.736.628-2.207-.73-2.3,2.636,3.065-.095,6.09-.14,9.127-.33.3-.033.568-.985.852-1.478-.837-1.16-1.659-2.272-2.454-3.409m48-61.155c-1.343.477-2.868-.783-4.074.973.189,2.438,1.58,1.258,2.478,1.69,1.617,2.249,3.263,4.521,4.922,6.793.1.118.412-.085.6-.14.379-3.327.379-3.327-3.929-9.316m-61.159,62.6c.192,1.373.355,2.481.766,5.155,1.27-2.314,2.053-3.693,2.823-5.1-.5-.638-6.812-6.009-7.1-5.9a6.534,6.534,0,0,0-1.434.988c.805,3.508,3.537,3.061,4.944,4.857m701.324-92.306c4.632-.191,4.632-.191,6.51-2.161a10.2,10.2,0,0,0-2.631-.427c-1.923.253-3.925-.629-5.753.855-.307,2.333-.929,4.7.729,6.922.356-1.56.644-2.948,1.145-5.19m16.922.809c-.988-1.131-1.556-2.977-3.513-3.449.028,2.83.014,5.541.137,8.247.018.411.667.754,1.042,1.105.712-1.692,2.383-2.324,2.334-5.9M958.55,1228.044c.795,1.113,1.59,2.226,2.4,3.338,1.569.1,3.258,1.255,4.69-1.282a10.509,10.509,0,0,1-2.984-1.384c-.915-.794-1.495-2.374-2.838-1.9-.409.376-.845.8-1.267,1.225m-6.084,97.344c-.838-1.305-1.46-3.028-2.907-3.322-.731,1.16-1.435,2.295-2.03,3.257.894,1.4,1.662,2.61,2.43,3.8.894-1.334,1.707-2.545,2.507-3.731M1610.672,1164.6c.311,2.168.473,3.276.7,4.915,1.206-.376,2.18-.648,3.263-1-.25-1.638-.412-2.746-.59-4.023ZM1450.18,1366.868c-4.19-1.008-4.19-.96-5.4.82,1.552,1.186,3.078,1.139,5.4-.82m-508.746-55.586c-.983,2.111-2.378,2.856-2.536,4.942,1.015,1.082,1.964,1.125,3.2-.583-.176-1.108-.368-2.481-.662-4.359m26.065-79.3c3.6,2.018,3.595,1.946,4.839-.149a6.938,6.938,0,0,0-4.839.149m-12.975-56.03c1.78,2.026,3.526,1.972,5.265-.162-1.78-2.026-3.526-1.972-5.265.162m645.071-31.429c-1.34,2.122-1.258,3.475-.208,5.306.8-.17,1.742-.441,1.92-.471-.524-1.484-1.1-3.136-1.712-4.835M992.23,1330.574c-.371.036-.728.071-1.1.131-.085,1.092-.226,2.185-.242,3.3-.011.267.435.834.558.781.411-.182,1.081-.566,1.091-.929a24.657,24.657,0,0,0-.308-3.281m-8.473,1.157c1.6,1.572,2.7,2.264,3.406-.468-1.031-1.3-2.006-1.2-3.406.468m-47.1-10.21-.057-1.571a15.664,15.664,0,0,0-2.327-.315c-.193-.018-.585.623-.542.815.13.577.387,1.537.634,1.553a8.692,8.692,0,0,0,2.292-.482m-5.058-8.071c1.173,1.755,2.341,1.718,3.478-.107-1.173-1.754-2.341-1.718-3.478.107m-5.833-38.852-.057-1.571a19.2,19.2,0,0,0-2.327-.315c-.192.006-.585.623-.542.791.13.6.387,1.537.634,1.553a7.7,7.7,0,0,0,2.292-.458m673.384-159.78c-1.1,2.285-1.6,3.9.3,4.855.934-1.481.852-2.833-.3-4.855m-23.82,50.681a3.777,3.777,0,0,0-.05-4.983,3.777,3.777,0,0,0,.05,4.983M970.8,1237.635c-1.173-1.754-2.341-1.718-3.478.107,1.172,1.73,2.341,1.694,3.478-.107m-41.881,4.535-.057-1.571a15.378,15.378,0,0,0-2.327-.315c-.193-.018-.585.623-.542.815.115.553.387,1.537.634,1.529a7.78,7.78,0,0,0,2.292-.458m68.633,91.263c-.237-.307-.432-.592-.627-.852a9.731,9.731,0,0,0-.52,1.662c-.039.219.349.546.545.83.2-.563.4-1.1.6-1.64m-70.315,3.429c.368-.3.75-.6,1.118-.93-.2-.26-.434-.809-.585-.756a6.691,6.691,0,0,0-1.161.81c.209.284.4.544.628.876m45.091-8.143c-.23.346-.434.618-.61.89a4.558,4.558,0,0,0,1.176.762c.124.045.366-.519.556-.816q-.582-.418-1.122-.837m327.742-12.076c.212.526.437,1.051.635,1.578.2-.272.571-.623.542-.839a8.247,8.247,0,0,0-.566-1.628c-.176.272-.366.544-.61.89m-344.634,10.1c-.355.3-.736.628-1.1.929.2.26.434.809.571.757a4.969,4.969,0,0,0,1.161-.81c-.2-.26-.39-.544-.628-.876M954.4,1309.89c.2.526.423,1.052.621,1.6.2-.3.571-.647.542-.839A8.1,8.1,0,0,0,955,1309c-.176.272-.366.568-.6.89m527.654-31.193c.211.5.423,1.052.635,1.578.19-.3.571-.623.528-.839a9,9,0,0,0-.553-1.653c-.19.272-.379.568-.61.914m33.3-7.247c.354-.3.736-.628,1.1-.929-.2-.26-.434-.809-.585-.756a4.9,4.9,0,0,0-1.147.81c.2.26.377.545.627.876m38.591-10.411q-.532.416-1.1.905c.2.26.434.809.571.757a4.972,4.972,0,0,0,1.161-.81c-.182-.285-.39-.545-.627-.852m89.254-19.645c.211.5.409,1.028.635,1.578.19-.3.571-.647.528-.839a10.167,10.167,0,0,0-.553-1.653c-.2.272-.379.568-.61.914m-51.476.694c.19-.3.571-.623.528-.839a9,9,0,0,0-.553-1.653c-.19.3-.571.647-.542.839a10.234,10.234,0,0,0,.567,1.652m24.523-3.612c.244-.322.42-.618.61-.89a4.449,4.449,0,0,0-1.176-.738c-.138-.044-.366.519-.556.792.374.279.762.557,1.122.836m24.589-9.446-.627-.876a10.574,10.574,0,0,0-.519,1.686c-.039.219.349.522.544.806.215-.539.4-1.1.6-1.616m6.906-5.2c-.251-.331-.432-.592-.627-.876a9.015,9.015,0,0,0-.533,1.71c-.026.194.349.522.558.781l.6-1.616m-673.21,15.794c.211.526.423,1.052.635,1.6.2-.3.571-.623.542-.839a9.044,9.044,0,0,0-.567-1.652c-.19.3-.379.568-.61.89m4.574-14.321c-.212-.526-.423-1.052-.635-1.6-.19.3-.571.647-.542.839a10.226,10.226,0,0,0,.566,1.652c.19-.3.379-.568.61-.89m640.525-32.232c-.2-.5-.409-1.052-.62-1.554-.19.272-.571.623-.542.815a10.23,10.23,0,0,0,.567,1.652c.19-.272.379-.568.6-.914m-670.209,17.492c-.223-.332-.418-.592-.614-.876a10.612,10.612,0,0,0-.533,1.686c-.012.218.363.545.558.83.2-.563.4-1.1.589-1.64m628.8-41.066c.237.307.432.592.627.852a10.569,10.569,0,0,0,.52-1.686c.025-.194-.349-.522-.544-.782l-.6,1.616m29.848-4.648c-.231.322-.42.618-.61.89a4.241,4.241,0,0,0,1.162.739c.152.044.394-.5.57-.792-.374-.279-.762-.581-1.122-.836m-663.605,19.224c.223.332.418.592.628.876a12.157,12.157,0,0,0,.519-1.686c.025-.219-.363-.545-.544-.806-.215.539-.415,1.1-.6,1.616m666.41-23.424c.209.284.435.833.585.78a5.4,5.4,0,0,0,1.161-.834c-.209-.26-.434-.785-.585-.732a5.128,5.128,0,0,0-1.161.786m-22.972-14.56-.627-.876a10.536,10.536,0,0,0-.52,1.686c-.039.219.349.546.544.806.215-.539.4-1.1.6-1.616" fill="#ffac06"/>
            <path id="Path_10905" data-name="Path 10905" d="M884.845,1316.344a37.53,37.53,0,0,0-.073,3.753c-.67.408-1.38.841-2.583,1.58-1.191-2.189-2.409-4.427-3.88-7.091.013-.049.445-.836,1.012-1.919.094-1.648.212-3.588.368-5.867.81-.17,1.916-.882,2.334-.387,1.934,2.312,3.693,4.943,5.743,7.76,1.09-.977,1.989-1.828,3.407-3.106.758,1.525,1.7,3.456,2.358,4.767l2.846-.088.631,3.949c-1.34.792-2.324,1.378-3.308,1.965.662,1.625,1.283,3.179,2.016,4.971-1.009.83-1.678,1.383-3.028,2.513-.677-1.746-1.369-3.539-2.075-5.356-.013.025.528-.863,1.1-1.752a38.039,38.039,0,0,1-3.628-2.55c-1.152-1.029-1.764-3.188-3.235-3.143-.3-1.443-.2-3.357-1.694-1.642a8.023,8.023,0,0,0,1.694,1.642" fill="#ffac06"/>
            <path id="Path_10906" data-name="Path 10906" d="M1573.741,1359.521c.624-.842,1.221-1.635,1.818-2.452.46.639.865,1.208,1.492,2.059l10.819-.334c.42-.594.813-1.211,1.287-1.9.846.676,1.705,1.4,2.925,2.378.749-.749,1.62-1.647,2.763-2.82l3.162-.1c1.431,1.456,1.31,3.13.117,4.885-.6-.78-1.212-1.56-1.824-2.315-.461.668-.868,1.261-1.558,2.3l-32.827,1.013c-1.046,1.291-1.685,2.06-2.554,3.128-1.178-.932-2.343-1.864-3.867-3.1-.735.749-1.606,1.647-2.559,2.62-1.081-.813-.971-2.269-.628-3.707.257-.419.458-.982.65-.988,6.942-.239,13.884-.453,20.785-.666" fill="#ffac06"/>
            <path id="Path_10907" data-name="Path 10907" d="M1616.3,1355.74c.186-.707.371-1.415.623-2.318l20.922-.646c.542-.815.948-1.409,1.558-2.3,1.885-1.22,4.165-.177,6.36-.632-.186.708-.244,1.774-.6,2.051a48.746,48.746,0,0,1-4.619,2.95l-7.245.224c-1.007,1.047-1.864,1.969-2.831,2.967-1.247-.929-2.411-1.813-3.921-2.976-.762.846-1.6,1.792-2.475,2.738-.529-.661-1.156-1.465-1.769-2.244Z" fill="#ffac06"/>
            <path id="Path_10908" data-name="Path 10908" d="M898.359,1324.324c1.483-1.594,2.816-3.039,4.381-4.709-.916-2.222-1.578-3.847-2.381-5.758l-.044-4.451c1.423-2.1,2.819-4.177,4.228-6.277,1.008,1.784,2.982,2.594,2.659,6.04-1,.732-2.13,1.566-3.249,2.375-.961,2.958,1.169,4.15,1.926,5.579-2.227,5.537-3.581,7.66-5.54,8.4-.4.157-.954-.551-1.978-1.2" fill="#ffac06"/>
            <path id="Path_10909" data-name="Path 10909" d="M1069.467,1380.071l-2.571.079c-.61.842-1.207,1.658-1.8,2.475-.46-.639-.865-1.207-1.562-2.154l-17.376.536a4.2,4.2,0,0,1-.461-4.9l3.959-.122c.432.616.837,1.16,1.534,2.131l17.527-.541c.327,1.1.541,1.8.754,2.493" fill="#ffac06"/>
            <path id="Path_10910" data-name="Path 10910" d="M891.243,1271.162l-6.172.191c-.67-1.044-1.425-2.255-2.626-4.129,1.2-1.126,2.561-2.426,3.011-2.852.673-2.852-.02-4.742,1.667-5.254l1.129,4.321c1.308.177,2.657.329,3.965.507.669.923.669.923-1.01,3.564Z" fill="#ffac06"/>
            <path id="Path_10911" data-name="Path 10911" d="M1032.969,1376.963c-.123,1.431-.233,2.814-.379,4.706-1.016-1.275-1.6-2.056-2.2-2.836-.583.817-1.166,1.633-1.763,2.45-.432-.592-.836-1.136-1.52-2.107-2.912-1.072-6.331.849-9.755-.618,2.671-2.43,4.017-2.568,15.619-1.6" fill="#ffac06"/>
            <path id="Path_10912" data-name="Path 10912" d="M1081.644,1382.188c-3.629.112-7.244.3-10.874.287-.839-.022-1.481-.922-1.317-2.4l2.529-.078c.556-.767,1.139-1.584,1.763-2.45.571.733,1.156,1.465,1.964,2.5l5.279-.163c.285.959.456,1.631.656,2.3" fill="#ffac06"/>
            <path id="Path_10913" data-name="Path 10913" d="M1680.114,1237.714c2-.618,2.755-.884,3.742-1.18.426-1.417.931-3.126,1.424-4.787l1.828-.057c1.85,2.169-.99,2.717-.837,4.357.153,1.544.059,3.12.071,4.354-.406.617-.61.914-.8,1.21-.983-2.075-2.7-2.167-5.429-3.9" fill="#ffac06"/>
            <path id="Path_10914" data-name="Path 10914" d="M1600.373,1357.756c.856-1.043,1.057-1.533,1.277-1.54q4.288-.205,8.564-.264c.193-.006.4.52.613.828-2.222,2-2.222,2-10.455.976" fill="#ffac06"/>
            <path id="Path_10915" data-name="Path 10915" d="M1663.106,1346.818c1.5-2.587,4.436-4.71,6.527-4.557-.033,2.227-1.511,2.926-2.211,4.424Z" fill="#ffac06"/>
            <path id="Path_10916" data-name="Path 10916" d="M1648.644,1275.492l-.048-4.814c.877-.269,1.659-.511,2.81-.861.235,1.541.414,2.915.665,4.625-1.138.35-1.919.592-3.427,1.05" fill="#ffac06"/>
            <path id="Path_10917" data-name="Path 10917" d="M942.616,1359.473l-.048-4.814c.877-.269,1.659-.511,2.824-.861.222,1.542.4,2.916.651,4.626-1.138.35-1.919.592-3.427,1.05" fill="#ffac06"/>
            <path id="Path_10918" data-name="Path 10918" d="M1663.1,1347.326c-2.183,3.092-4.494,1.639-6.807,1.372,2.049-2.773,4.583-.988,6.807-1.372" fill="#ffac06"/>
            <path id="Path_10919" data-name="Path 10919" d="M1675.354,1241.612c-1.707-.165-.806-2.25-1.243-3.3-.381-.932-1.238-1.462-2.546-2.922,1.811-.443,2.785-.667,3.621-.886a9.308,9.308,0,0,1,.167,7.109" fill="#ffac06"/>
            <path id="Path_10920" data-name="Path 10920" d="M902.613,1335.832c-1.93-.448-2.894-.685-4.2-1.007,1.387-1.567,1.89-3.495,3.522-3.932.149,1.133.311,2.217.682,4.94" fill="#ffac06"/>
            <path id="Path_10921" data-name="Path 10921" d="M919.463,1322.559c.068-1.5.135-2.981.189-4.483,1.935-.423,1.95,2.5,3.257,2.537-.685,3.046-2.269,1.4-3.446,1.945" fill="#ffac06"/>
            <path id="Path_10922" data-name="Path 10922" d="M919.482,1305.112c-.225,2.233-.349,3.616-.523,5.437-.962-1.277-1.587-1.984-2.132-2.838a9.353,9.353,0,0,1-.649-1.65,13.179,13.179,0,0,1,1.408-.866c.26-.129.563-.042,1.9-.083" fill="#ffac06"/>
            <path id="Path_10923" data-name="Path 10923" d="M1694.895,1226.466l.035,3.483c-.87,2.422-2.078,1.226-3.614,1.612,1.085-2.889,1.906-4.681,3.58-5.1" fill="#ffac06"/>
            <path id="Path_10924" data-name="Path 10924" d="M1610.4,1112.171l2.433-.075c1.511,1.26,1.431,2.86.445,4.657a6.29,6.29,0,0,1-2.878-4.582" fill="#ffac06"/>
            <path id="Path_10925" data-name="Path 10925" d="M1041.811,1379.691c-1.413,1.665-2.361,1.791-3.392.468.688-2.731,1.809-2.016,3.392-.468" fill="#ffac06"/>
            <path id="Path_10926" data-name="Path 10926" d="M1616.438,1355.372c-1.153,2.939-1.153,2.939-3.46,1.922.648-2.609,2.232-.916,3.46-1.922" fill="#ffac06"/>
            <path id="Path_10927" data-name="Path 10927" d="M1645.768,1349.845c.992-2.571.992-2.571,3.3-1.554-.62,2.657-2.19,1.06-3.3,1.554" fill="#ffac06"/>
            <path id="Path_10928" data-name="Path 10928" d="M933.951,1352.385a7.86,7.86,0,0,1,2.306-.458c.247-.008.5.952.634,1.529.043.192-.349.833-.542.815a15.376,15.376,0,0,1-2.327-.315c-.019-.532-.038-1.064-.071-1.571" fill="#ffac06"/>
            <path id="Path_10929" data-name="Path 10929" d="M912.546,1311.472c-1.356,1.953-2.309,1.475-3.4.807.768-3,1.875-2.308,3.4-.807" fill="#ffac06"/>
            <path id="Path_10930" data-name="Path 10930" d="M1652.734,1265.081a3.777,3.777,0,0,1-.05-4.983,3.777,3.777,0,0,1,.05,4.983" fill="#ffac06"/>
            <path id="Path_10931" data-name="Path 10931" d="M1657.883,1260.131c-1.147-2-1.23-3.374-.31-4.854,1.907.958,1.414,2.57.31,4.854" fill="#ffac06"/>
            <path id="Path_10932" data-name="Path 10932" d="M1610.484,1120.856c1.137-1.826,2.305-1.862,3.478-.107-1.137,1.826-2.305,1.862-3.478.107" fill="#ffac06"/>
            <path id="Path_10933" data-name="Path 10933" d="M1601.921,1132.324a12.008,12.008,0,0,1,.036-3.316c.213-.757,1.075-1.17,1.647-1.72l.05,4.983Z" fill="#ffac06"/>
            <path id="Path_10934" data-name="Path 10934" d="M1629.938,1156.335l.05,4.983c-1.62.219-1.856-1.37-1.736-3.044.084-1.261.625-2.2,1.686-1.94" fill="#ffac06"/>
            <path id="Path_10935" data-name="Path 10935" d="M1629.987,1161.319c1.788,1.421,1.788,1.421,1.065,4.734-1.879-.862-.733-3.147-1.065-4.734" fill="#ffac06"/>
            <path id="Path_10936" data-name="Path 10936" d="M1674.463,1179.837a3.777,3.777,0,0,1-.05-4.983,3.777,3.777,0,0,1,.05,4.983" fill="#ffac06"/>
            <path id="Path_10937" data-name="Path 10937" d="M1671.889,1183.643c1.151-1.826,2.305-1.862,3.492-.108-1.151,1.826-2.305,1.862-3.492.108" fill="#ffac06"/>
            <path id="Path_10938" data-name="Path 10938" d="M1656.347,1191.576q1.705-2.739,3.478-.107-1.726,2.739-3.478.107" fill="#ffac06"/>
            <path id="Path_10939" data-name="Path 10939" d="M1674.068,1227.109c-.3,1.606.891,3.82-.956,4.8-.8-3.266-.8-3.266.956-4.8" fill="#ffac06"/>
            <path id="Path_10940" data-name="Path 10940" d="M1035.358,1380.761c-.237-.331-.432-.592-.628-.876a5.827,5.827,0,0,1,1.161-.81c.137-.053.376.5.571.757-.368.326-.75.628-1.1.929" fill="#ffac06"/>
            <path id="Path_10941" data-name="Path 10941" d="M1014.11,1377.69c.244-.346.42-.618.623-.915a10.174,10.174,0,0,1,.553,1.653c.03.217-.338.567-.528.839-.225-.525-.423-1.076-.648-1.577" fill="#ffac06"/>
            <path id="Path_10942" data-name="Path 10942" d="M1652.988,1351.219c.2-.514.388-1.077.589-1.615.2.26.583.587.558.806a10.6,10.6,0,0,1-.533,1.686l-.614-.876" fill="#ffac06"/>
            <path id="Path_10943" data-name="Path 10943" d="M1692.825,1318.266c-.7,1.208-1.095,1.9-1.487,2.587-1.2-2.141.131-2.013,1.487-2.587" fill="#ffac06"/>
            <path id="Path_10944" data-name="Path 10944" d="M1691.855,1318.876c.7-1.207,1.095-1.9,1.487-2.587,1.2,2.116-.131,1.988-1.487,2.587" fill="#ffac06"/>
            <path id="Path_10945" data-name="Path 10945" d="M903.7,1322.32c.849.99,1.322,1.532,1.795,2.1-1.5,1.74-1.391-.175-1.795-2.1" fill="#ffac06"/>
            <path id="Path_10946" data-name="Path 10946" d="M1675.112,1269.714c.347.28.734.558,1.109.861-.19.272-.4.811-.556.792a5.878,5.878,0,0,1-1.176-.738l.623-.915" fill="#ffac06"/>
            <path id="Path_10947" data-name="Path 10947" d="M1663.771,1259.054c.835.991,1.308,1.533,1.795,2.1-1.5,1.74-1.4-.174-1.795-2.1" fill="#ffac06"/>
            <path id="Path_10948" data-name="Path 10948" d="M1662.214,1257.311c1.2-.085,1.781.719,1.757,2.438-1.2.085-1.781-.719-1.757-2.438" fill="#ffac06"/>
            <path id="Path_10949" data-name="Path 10949" d="M1662.413,1258.007c-.849-.99-1.322-1.556-1.809-2.122,1.5-1.716,1.4.2,1.809,2.122" fill="#ffac06"/>
            <path id="Path_10950" data-name="Path 10950" d="M892.434,1278.941c.237.331.432.592.628.876a5.831,5.831,0,0,1-1.161.81c-.137.053-.376-.5-.571-.757.368-.326.75-.628,1.1-.929" fill="#ffac06"/>
            <path id="Path_10951" data-name="Path 10951" d="M891.03,1270.467c.849.99,1.322,1.556,1.8,2.122-1.5,1.716-1.391-.2-1.8-2.122" fill="#ffac06"/>
            <path id="Path_10952" data-name="Path 10952" d="M1663.558,1243.234c-.2.514-.4,1.077-.6,1.616-.209-.26-.583-.587-.558-.806a9.4,9.4,0,0,1,.533-1.686c.2.284.377.545.628.876" fill="#ffac06"/>
            <path id="Path_10953" data-name="Path 10953" d="M1659.379,1235.015a9.043,9.043,0,0,1-.567-1.652c-.03-.217.352-.543.542-.839a10.178,10.178,0,0,1,.553,1.653c.043.216-.338.543-.528.839" fill="#ffac06"/>
            <path id="Path_10954" data-name="Path 10954" d="M1703.344,1223.011c.849.99,1.322,1.556,1.795,2.1-1.5,1.74-1.391-.175-1.795-2.1" fill="#ffac06"/>
            <path id="Path_10955" data-name="Path 10955" d="M1694.416,1226.747c.7-1.207,1.095-1.9,1.487-2.587,1.19,2.141-.145,2.013-1.487,2.587" fill="#ffac06"/>
            <path id="Path_10956" data-name="Path 10956" d="M1703.771,1224.377c-.849-.99-1.322-1.532-1.809-2.1,1.5-1.74,1.4.174,1.809,2.1" fill="#ffac06"/>
            <path id="Path_10957" data-name="Path 10957" d="M1653.03,1207.843l1.732-.053c-.186.683-.284,1.9-.558,2-1.041.371-1.217-.737-1.174-1.948" fill="#ffac06"/>
            <path id="Path_10958" data-name="Path 10958" d="M1654.762,1207.789c-.058-1.716.511-2.557,1.721-2.546.058,1.716-.51,2.581-1.721,2.546" fill="#ffac06"/>
            <path id="Path_10959" data-name="Path 10959" d="M1674.052,1200.636c.23-.346.42-.618.61-.914a8.992,8.992,0,0,1,.553,1.653c.043.216-.338.567-.528.839-.225-.55-.423-1.076-.635-1.578" fill="#ffac06"/>
            <path id="Path_10960" data-name="Path 10960" d="M920.652,1212.759l-1.473,2.586c-1.2-2.141.131-2.013,1.473-2.586" fill="#ffac06"/>
            <path id="Path_10961" data-name="Path 10961" d="M957.227,1209.791c.36.279.762.557,1.136.86-.2.272-.418.836-.57.792a5.883,5.883,0,0,1-1.176-.738l.61-.914" fill="#ffac06"/>
            <path id="Path_10962" data-name="Path 10962" d="M937.071,1212.833l1.473-2.586c1.2,2.141-.131,1.988-1.473,2.586" fill="#ffac06"/>
            <path id="Path_10963" data-name="Path 10963" d="M916.511,1193.286c.838-.123,1.61.1,1.391,1.6-.065.413-.9.584-1.366.889Z" fill="#ffac06"/>
            <path id="Path_10964" data-name="Path 10964" d="M927.524,1165.578a8.992,8.992,0,0,1-.553-1.653c-.043-.192.325-.542.528-.839a10.233,10.233,0,0,1,.567,1.652c.016.217-.352.568-.542.839" fill="#ffac06"/>
            <path id="Path_10965" data-name="Path 10965" d="M1610.6,1112.867c-.849-.99-1.322-1.556-1.8-2.122,1.5-1.74,1.391.2,1.8,2.122" fill="#ffac06"/>
            <path id="Path_10966" data-name="Path 10966" d="M1589.48,1167.167c-.36-.279-.748-.558-1.123-.861.19-.272.418-.811.556-.767a4.347,4.347,0,0,1,1.176.714c-.19.3-.379.568-.61.914" fill="#ffac06"/>
          </g>
        </g>
      </g>
      <path id="Color_Overlay" data-name="Color Overlay" d="M1102.62,1384.081l-20.221.624c-.328-1.127-.541-1.823-.741-2.518l4.289-.132c.61-.842,1.221-1.659,1.818-2.452.446.616.85,1.208,1.282,1.751,12.577.8,33.386-.087,39.352-1.7-.126-.287-.227-.719-.393-.835a3.806,3.806,0,0,0-1.586-.483c-10.076.287-20.153.6-30.037.9-.614-.852-1.032-1.42-1.743-2.39l-17.362.536c-.711-.995-1.13-1.562-1.841-2.557l-22.558.7-1.84-2.508-26.036.8c-.7-.971-1.13-1.562-1.589-2.2l-10.31.318c-.654-.826-1.3-1.63-1.949-2.48l-6.874.212c-.626-.828-1.254-1.655-1.908-2.482l-12.07.373c-.446-.616-.864-1.183-1.547-2.13a16.062,16.062,0,0,0-4.559-.133,19.054,19.054,0,0,1-4.463-.072c-.405-.569-.823-1.137-1.535-2.13l-12.165.375c-.711-.995-1.13-1.562-1.7-2.344-.544.671-1.114,1.342-1.794,2.161-.543-.661-1.155-1.368-1.837-2.193l-8.716.268c-.685-1.092-1.439-2.326-2.25-3.632.148-.3.414-1.247.688-1.28,3.449-.252,6.913-.334,10.363-.562.206-.006.393-.544.6-.841-.406-2.068-1.771-1.107-2.657-1.684-1.032-1.42-2.077-2.84-3.221-4.426-.571.7-1.154,1.439-1.833,2.307l-8.6.266c-.557-.685-1.17-1.489-1.839-2.339l-5.127.158c-.641-.827-1.282-1.654-1.95-2.5l-3.313.1c-.71-.849-1.35-1.628-2.032-2.478l-5.045.156c-.819-2.153-1.581-4.186-2.387-6.291.38-.592.907-1.48,1.448-2.367-.787-1.322-1.735-1.185-2.7-1.049a3.758,3.758,0,0,1-1.466.015c-1.179,1.658-2.4,3.389-3.593,5.071l-3.451.106c-2.02-2.6-.483-4.292.954-6.394-2.19-1.651-4.327-.883-6.331-.554-.638.745-1.2,1.391-2.093,2.412-.2-1.737-.317-2.87-.482-4.2,1.094-.59,2.092-1.129,3.324-1.772-.437-1.148-.861-2.248-1.312-3.372a1.99,1.99,0,0,1,2.327-.876,1.979,1.979,0,0,0,1.594-.213l2.2,2.715c.248-1.363.471-2.483.68-3.554-2.01-1.511-4.136-2.413-5.4-5.5,1.013-.539,2.179-.769,2.981-1.689.911-1.044,1.642-2.277,3.048-1.812,1.885,1.442.306,4.467,1.3,6.638.534.938,1.235.8,1.958.658a2.9,2.9,0,0,1,1.1-.071c.067-1.487.134-2.95.187-4.438,1.935-.423,1.95,2.5,3.257,2.537-.467,2.076-1.352,1.972-2.241,1.868a2.364,2.364,0,0,0-1.136.047l.013,0,.065,6.483c.677.342,1.437.73,2,1.027,2.162-1.107,2.592-4.8,4.829-5.254,1.866-.4,2.725-2.48,3.487-4.585.154-3.925-3.479-4.2-3.557-7.827l2.832-.087a23.3,23.3,0,0,1,.643-3.142c.414-1.222,1.007-2.354,1.5-3.506-.988-1.228-1.755-2.22-2.465-3.119-.977,1.362-1.8,2.5-2.577,3.564l.062,6.29c-.484-.275-.982-.575-1.6-.895l-.08-8.007c.167-1.142,2.347-1.814,1.033-5.4-.182-.284-.977-1.445-1.786-2.606-1.768.563-2.194,3.382-4.616,4.595l-2.419.075c-.652.868-1.275,1.709-2.008,2.7a40.506,40.506,0,0,1-2.507-4.593c-.917-2.3-1.384-5.015-2.409-7.186-.968-2-2.427-3.482-3.752-5.3l-5.443.168c-.951-1.641-2.043-3.542-2.9-5.041l-2.419.075c-.271-.984-.543-2.065-.972-3.672,1.319-1.493,2.665-3.035,3.7-4.228l-.057-5.733c.568-.913,1.123-1.8,1.651-2.665-.586-.9-1.158-1.779-1.647-2.514-.269-2.146.424-4.345-.969-6.189-.573,1.832-1.093,3.518-1.652,5.278-.792-2.154-1.541-4.162-2.4-6.508.3-.493.812-1.38,1.325-2.267-.53-.831-1.1-1.684-1.661-2.538l-.049-4.935c.477-.426.923-1.19,1.391-1.2,6.886-.285,13.759-.474,20.289-.675.746-1.111,1.138-1.7,1.843-2.742l7.41-.229c-.346-2.99-2.114-3.806-3.054-5.64.269-.517.521-1.468.81-1.5,4.6-.239,9.21-.333,13.815-.475.587-1.784,1.148-3.471,1.841-5.574,2.313,1.623,4.473,3.128,6.744,4.7,2.047-1.563,4.367-3.329,6.769-5.17.737,2.2,1.318,3.879,1.856,5.459l1.829-.056c1.454-1.643.539-3.84.846-6.149.6-.938,1.354-2.146,2.193-3.479,1.29-.257,2.649-.518,3.965-.776.244-.371.613-.648.624-.963.008-3.291-.039-6.605-.071-9.871.568-.913,1.123-1.825,1.678-2.714-.85-1.159-1.672-2.295-2.537-3.5-.6.817-1.208,1.634-1.818,2.476-1.4.043-2.859.088-4.027.2-.547-1.1-1.027-2.388-1.536-2.4-1.279-.033-2.744-.811-3.866,1.087.958,1.721,2.146,1.53,3.4,1.338a4.991,4.991,0,0,1,2-.029,56.062,56.062,0,0,0-2.489,6.853l-2.626,1.412c-.133,1.868-.278,3.831-.41,5.8a2.231,2.231,0,0,1-2.561,1.023,3.367,3.367,0,0,0-1.485.069c-.627-.828-1.267-1.631-1.908-2.458l-3.643.113c-.244-1.009-.543-2.065-.973-3.769,1.916-2.334,3.886-4.718,5.395-6.53l-.036-3.58c-.843-1.381-1.861-1.236-2.873-1.091a5.107,5.107,0,0,1-1.18.078,33.066,33.066,0,0,0-3.464.083l-4.193.13c-.251,3.372,1.374,1.816,2.884,4.6-.066-.3-.052-.344.064.121-.022-.041-.042-.081-.064-.121a13.3,13.3,0,0,0,.549,1.823c.167.445.723.566,1.192.774l1.242-2.18c1.058,1.884.153,1.992-.994,2.4l.085,8.5c.572.853,1.158,1.706,2.079,3.033-1.234.353-2.194.625-3.373.951-.25-1.638-.427-2.77-.6-4.072-1.324-1.822-2.76-3.786-4.057-5.61-.923-.213-1.7-.431-2.73-.689l-.079-7.959c-1.116-1.588-1.912-2.749-2.678-3.862l-3.492.108c-2.05,2.652-.021,6.243-1.064,9.131-.338.215-.676.431-1.019.646l-1.439,2.526c-1.063-1.89-.146-2.011,1.007-2.408l-.059-5.944c-.544-.831-1.13-1.66-1.842-2.75,1.208-1.562,2.429-3.172,3.937-5.107-.606-1.457-1.2-2.649-1.649-3.966s-.769-2.734-1.14-4.054c-1.727-.818-1.9-.691-2.906,2.169.832-.118,1.594.105,1.376,1.6-.065.413-.9.584-1.366.889l-.024-2.485c-.493.277-1.3.472-1.366.882-.22,1.483.553,1.725,1.4,1.6.178,2.632-1.923,2.891-2.257,5.248-1.463-1.89-2.689-3.474-3.943-5.1l-3.848.119c-.138-1.375-.275-2.774-.427-4.2a16.118,16.118,0,0,0,11.434-8.968c1.911,1.3,3.364,2.268,4.638,3.124,2.762-2.989-.447-7.657,2.071-10.275.836,1.16,1.673,2.319,2.5,3.456-.616,1.664-2.5,2.545-1.084,5.817,1.133.815,2.539.653,4.148.491a14.118,14.118,0,0,1,3.379-.046c.732-1.087,1.693-2.545,2.235-3.361.462-4.781-2.525-5.052-3.039-8.375.379-.617,1.11-1.752,1.773-2.813,1.663-1.418,3.074-.543,4.582.333s3.109,1.75,5.156.338c.022-.033.859-.921,1.936-2.1.932.963,1.821,1.879,2.834,2.912l4.839-.149c.938-1.046,1.795-2.04,2.23-2.514a2.954,2.954,0,0,1,2.217,1.2c.916.933,1.728,1.868,3.136.568.13-.8.311-1.921.519-3.137-.933-1.157-1.8-2.219-2.867-3.517-2.466-1.812-4.269,2.236-6.6,2.672-.752-.945-1.393-1.772-1.993-2.577-.6.841-1.22,1.683-1.79,2.475-1.034.339-1.857-.4-2.735-1.141-1.194-1.006-2.493-2.012-4.568-.3.231-.274-.421.472-1.169,1.318-.749-.607-1.622-1.305-2.842-2.308-.734.773-1.62,1.671-2.736,2.8-.546-1.049-1.219-2.335-1.963-3.812.737-.531,1.788-1.314,2.853-2.073-.447-2.091-1.84-1.056-2.685-1.756a18.328,18.328,0,0,1-1.7-1.884c-.57.841-.976,1.458-1.463,2.175l-2.2-2.595-8.193.253c1.054-.468,7.393-3.3,7.762-3.458-1.343-.9-2.436-1.618-3.53-2.359.529-1.65,1.495-1.639,2.5-1.627a2.383,2.383,0,0,0,2.75-1.7,10.158,10.158,0,0,0-5.592-.6,18.232,18.232,0,0,1-2.857.091,14.487,14.487,0,0,0-2.22.038,9.627,9.627,0,0,1-6.206-1.182c3.5-1.7,6.095-1.035,8.54-1.352,1.06-1.194,2.08-2.339,3.236-3.633-1.657-1.506-3.282-1.364-4.842-1.223-1.446.131-2.838.262-4.145-.919.513-.936,1-1.8,1.58-2.832-1.135-.739-2.283-1.478-3.418-2.193l-.026-2.613c1.392-1.083,2.812-2.192,4.845-3.779l4.4-.136c.665-.867,1.29-1.709,1.982-2.626l17.224-.531c.638-.891,1.262-1.733,1.885-2.6l36.415-1.124c.407-.617.814-1.211,1.6-2.4,4.985-.589,10.435-.2,15.819-.779.434-.594.826-1.211,1.531-2.249l36.456-1.125c.7-1.039,1.1-1.632,1.8-2.669l62.506-1.93c.695-1.023,1.086-1.615,1.747-2.6l462.645-8.115c.3.41.557.766.843,1.174l12.523-.387c1.427,2.449,3.078,5.277,4.379,7.536l7.629-.236c2.09,2.695.374,4.32-.8,6.148l.049,4.886c-2.162,2.511-3.147,7.09-6.684,6.764.275,2.7,1.61,4.306,2.575,4.469,1.735.334,2.3.921,2.62,3.5.209,1.639,1.748,2.9,2.376,3.871,3.349.792,2.181-3.31,3.473-4.754.57.661,1.168,1.368,1.877,2.168l5.1-.157c.943-.537,1.21-2.821,2.657-2.478.2.671.321,1.853.6,1.941,1.048.307,1.2-.787,1.136-2,1.06.234,1.588-.7,1.686-1.94.106-1.673-.115-3.263-1.736-3.044l.049,4.959-1.732.054a11.982,11.982,0,0,1,.035-3.317c.212-.754,1.069-1.167,1.642-1.715-.2-.7-.387-1.953-.619-1.97-2.462-.094-4.1-4.447-7.928-2.127-.2.3-1.125,1.632-1.966,2.867.784,1.355,1.26,2.164,1.987,3.4-1.124.349-1.892.59-2.577.83-2.2-2.376-.194-5.632-1.1-8.169-.535-1.145-1.068-2.29-1.856-4.009l4.138-.127c3.315-4.047-1.706-5.586-.679-8.715,1.92-1.923,1.92-1.923,4.158.5.763-.7,1.553-1.452,2.684-2.5,1.012.816,2.148,1.724,3.659,2.937.722-.725,1.593-1.6,2.682-2.7.229.815.831,1.91.66,2.666-.541,2.291-1.512,4.208-3.263,5.061-.292-1.588-.2-3.5-1.682-1.786a15.342,15.342,0,0,0,1.682,1.786c-.693,3.627,1.819,5.921,2.457,9.241a35.429,35.429,0,0,0,1.586,4.621,5.843,5.843,0,0,1,2.557,1.325c.946,1.084,1.753,2.027,3,1.529,1.673,2.319,3.318,4.616,5.145,7.149.557-.622,1.114-1.292,1.753-2.038,1.838-.468,3.839-1.207,5.258,1.895l5.238-.161c.5-.621,1.1-1.462,1.886-2.479.672,1.19,1.386,2.426,2.422,4.281l.046,4.621c1.167,1.2,2.556,2.607,3.6,3.688l.068,6.8c1.627,1.837,3.631,4.122,5.592,6.337-.383,1.681-.646,2.778-.91,3.972-.779-.968-1.392-1.724-1.991-2.455-.6.769-1.181,1.562-1.778,2.33-.878-1.231-1.714-2.367-2.537-3.527l-.025-2.516c-1.45-1.939-2.9-3.9-4.377-5.891-.958.49-1.21,2.748-2.616,2.4.03-2.517-1.6-3.241-2.562-4.591-.376-.544-1.485-.051-2.118-.031-1.311,3.67-.048,6.245.955,8.876a2.284,2.284,0,0,1-2.495.891,3.255,3.255,0,0,0-1.579.105c-1.262,3.04-1.58,7.018-5.207,8.654,1.933.86,2.941,1.289,3.922,1.742.372,1.417.771,2.831,1.185,4.368.447-.595,1.049-1,1.085-1.485.108-1.625.023-3.244.009-4.647a2.458,2.458,0,0,1,2.791-1.309,3.618,3.618,0,0,0,1.417-.079c.613.779,1.24,1.582,1.895,2.434l6.86-.211c.64.778,1.254,1.582,1.838,2.315l1.793-2.281c1.115,1.538,2.061,3.953,3.2,4.16,1.819.33,2.789,2.551,4.388,2.889a10.894,10.894,0,0,0,2.668-.058c.584-.744,1.194-1.586,1.9-2.527l1.608-.05c.157-.005.316,0,.475,0a5.23,5.23,0,0,0,1.256-.1c.233-.056.393-.569.639-.746,1.581-1.38,3.177-2.712,4.8-4.092.363.5.767,1.065,1.366,1.918l4.468-.138c2.009,1.487,3.63,2.695,5.25,3.9-1.612,2.421-3.861,4.451-4.644,7.282a15.082,15.082,0,0,1-3.262,6.585c-1.922.374-2.636-.911-2.32-3.751-.807-.992-1.671-2.078-2.645-3.282l-5.554.171c-.409,1.707-.739,3.169-1.135,4.8-.765-.92-1.378-1.676-2.032-2.5l-5.224.161c-.718,1.135-1.49,2.369-2.4,3.8,1.094.716,2.2,1.456,3.281,2.149-.328,1.583-1.905,2.019-1.582,4.017-2.7-.788-4.318,2.723-6.552,3.469.569,1.918,1.07,3.911,1.762,5.777.184.479.913.528,1.3.468a33.09,33.09,0,0,0,.074-3.632c1.043-1.508,2.251-3.167,3.4-4.92.136-.2.02-.751.016-1.163l4.536-.14c.289-1.34.6-2.777.934-4.216a3.324,3.324,0,0,1,4.814.094l-1.473,2.611c.511,1.606,2.266,2.446,1.6,4.959-.541.888-1.124,1.777-1.692,2.69l.061,6.15v-.005l1.732-.053c-.058-1.716.511-2.557,1.722-2.545a.115.115,0,0,0,0,.017c.194-2.327-.544-4.819.613-7.344.6.659,1.182,1.294,1.891,2.071l1.793-2.209c.539,1.58,1.077,3.162,1.587,4.646a14.869,14.869,0,0,0,2.641-2.743c.382-1.681-1.217-2.02-1.619-3.749l2.135-1.034c2.245,1.722,3.112,4.575,3.965,7.4.6-.769,1.181-1.585,2.117-2.823.316,2.7.6,4.99.9,7.5l5.911-.183c.976-1.482,1.992-2.966,3.265-4.868a21.1,21.1,0,0,0,.867,2.756c.786,1.646,1.641,3.168,2.594,4.978.625-2,1.159-3.69,1.652-5.3l2.048-.063c.344,1.368.7,2.809,1.174,4.682,1.238.083,2.6.186,3.426.257,2.437,3.1,4.555,5.837,6.6,8.459-.058,1.042-.092,1.818-.161,3.1a10.683,10.683,0,0,1-4.787.689,20.3,20.3,0,0,0-2.714.1c-.613-.755-1.253-1.559-2.173-2.74-.305,2.5-.557,4.759-.838,7.019a2.3,2.3,0,0,1-2.473.832,3.06,3.06,0,0,0-1.518.089c-.638.867-1.236,1.635-1.778,2.354-.654-.778-1.252-1.437-2.2-2.5-.247,2.815-.457,5.12-.668,7.426-2.942-1.289-3.706-6.226-6.67-6.957-.86-2.175-.86-2.175-2.989-1.892-.162.344-.475.644-.472.982.014,4.114.054,8.226.093,12.1.712,1.091,1.272,1.994,1.775,2.8,0,1.814.062,3.555-1.808,3.54-1.457.045-3.9-3.8-5.716-9.284-.8-.266-1.587-.484-2.36-.823-.235-.114-.432-.519-.626-.755l-.026-2.565c-.823-1.16-1.659-2.3-2.481-3.456-2.213,1.52-2.523,4.893-3.625,7.468-1.223,2.845-3.684,2.849-5.371,4.667-.405-.592-.823-1.16-1.241-1.752-1.576.557-1.337,2.51-.859,3.56.773,1.646,2.159,2.716,1.331,5.234-1.164,1.189-2.446,1.082-3.731.976a7.1,7.1,0,0,0-2.035.025l-1.8,2.5c-1.776,1.1-2.395-1.547-3.568-2.043-.652.842-1.29,1.613-2.2,2.73-.915-.77-1.858-1.54-3.009-2.5-.57.792-1.343,1.832-2.157,2.947a5.757,5.757,0,0,0,.595,1.675,15.365,15.365,0,0,0,8.988,5.046c1.318,2.549.385,5.53.731,8.471,1.12.716,2.311,1.478,3.445,2.193l.026,2.613c-2.512,4.6-6.754,5.266-9.617,9.056l-10.3.319c-.462.667-.868,1.261-1.572,2.323l-12.152.375c-.7,1.038-1.112,1.631-1.518,2.248a6.479,6.479,0,0,1-3.413.537c-1.641-.038-3.338-.075-4.968,1.537,1.974,1.273,3.87,1.1,5.7.919a17.329,17.329,0,0,1,2.144-.121c2.614.088,5.21-.112,7.822-.193l7.808-.241,7.217-.222c.836,1.159,1.255,1.727,1.7,2.367l31.178-.962c.654.85,1.281,1.654,1.936,2.481,4.605-.142,9.21-.284,13.843-.4.432.567.836,1.136,1.562,2.154l5.21-.161c.724.995,1.143,1.562,1.687,2.319,1.226.18,2.589.356,4.214.6.176,1.012.379,2.119.76,4.43.736.8,2.112,2.281,3.392,3.67-.422,4.635-3.018,6.287-4.612,9.071l-3.286.1c-.733.942-1.357,1.759-1.792,2.281l-5.142.158c-.778-.823-1.348-1.458-2.224-2.4-.217,1.724-.371,2.843-.563,4.2-1.015,1.423-2.254,1.271-3.534,1.119a5.63,5.63,0,0,0-2.174.025c-.6-.732-1.239-1.51-1.907-2.336-.7,1.981-1.4,3.988-2.286,6.531,1.478,2.083,3.235,4.522,5.006,6.96-1.911,2.818-3.713,5.511-5.529,8.2a4.521,4.521,0,0,1-3.326.779,10.239,10.239,0,0,0-2.069.089c-.381.447-1.033,1.169-2.19,2.439l-6.681.206c-.7,1.039-1.111,1.656-1.816,2.694l-15.629.482c-.691,1.038-1.111,1.632-1.586,2.348l-17.224.532c-.652.891-1.275,1.733-1.94,2.625l-24.18.746c-.652.868-1.262,1.685-1.846,2.477-.641-.8-1.281-1.606-2.186-2.715-.887.681-1.828,1.412-3.165,2.445-.223-.259-.793-.871-1.543-1.67-.489.62-1.073,1.34-1.724,2.134-.571-.684-1.169-1.416-1.8-2.171-.366.519-.773,1.089-1.181,1.633-.2.3-.418.787-.624.794q-17.342.571-34.628,1.094c-.461.691-.881,1.285-1.274,1.878-.218.224-.447.643-.681.65-16.166.523-32.345,1.022-48.374,1.517-.555.815-.962,1.409-1.667,2.471l-26.214.809c-.333,1.148-.532,1.856-.719,2.442-4.479.283-8.959.688-13.423,1.165-.123,0-.2.538-.321.833,6.53,1.274,9.114,1.171,13.744-2a15.338,15.338,0,0,0,2.572.066c.641.827,1.282,1.654,1.839,2.363,1.907.933,2.443-1.794,4.126-2.789.679.487,1.62,1.209,3.227,2.393l18.792-.58,1.64-2.4,45.13-1.393c.69-1.038,1.1-1.631,1.5-2.224,1.936-.254,3.9-.919,6,.323.065,1.014.118,2.126.182,3.092-.325.47-.526,1.032-.718,1.039-9.238.333-18.489.619-27.685.9-.665.916-1.275,1.758-1.873,2.551-.612-.756-1.225-1.511-1.837-2.243-.447.668-.854,1.261-1.477,2.2-.528-.54-1.1-1.152-1.918-2l-5.4.167c-.725.264-1.192,3.231-3.181,2.276-.5-.614-1.142-1.393-1.8-2.219-.583.768-1.18,1.609-1.791,2.426l-60.664,1.873c-.61.842-1.221,1.659-1.818,2.476-.433-.616-.864-1.183-1.548-2.13-.5.548-1.047,1.146-1.863,2.065l-7.134.22c-.517-.734-.934-1.3-1.464-2.036l-1.807,2.209-1.782-2.2c-.38.544-.786,1.113-1.193,1.707-.493.256-1,.733-1.491.747-19.355.646-38.738,1.245-58.01,1.84-.652.867-1.249,1.66-1.805,2.379-.71-.85-1.337-1.6-1.809-2.146-2.031-.953-2.44,2.156-4.388,2.628-.554-.467-1.456-1.262-2.538-2.2-.42.545-1,1.289-1.493,1.909l-186.116,5.745c-.613-.828-1.018-1.4-1.492-2.059-.583.792-1.18,1.585-1.818,2.427l-5.142.159c-.626-.8-1.253-1.607-1.839-2.363l-3.409.105c-.692.916-1.316,1.759-1.791,2.378l-12.18.376c-.5-.686-.906-1.279-1.45-2.011-.8.726-1.622,1.5-2.807,2.578-.763-.7-1.665-1.5-2.692-2.434-.448.595-1.045,1.363-1.683,2.206l-3.409.105c-.6-.732-1.226-1.535-1.824-2.267-.624.842-1.248,1.661-2.13,2.824-.9-.625-1.856-1.321-3.1-2.2-.5.451-1.336,1.227-2.534,2.3-.763-.7-1.665-1.5-2.609-2.388-.707.748-1.552,1.621-2.641,2.767-.958-1.035-1.793-1.953-2.6-2.823-.638.842-1.263,1.66-2.13,2.824C1105.514,1386.169,1104.572,1385.473,1102.62,1384.081Zm342.165-16.393c1.552,1.187,3.078,1.139,5.4-.819a18.243,18.243,0,0,0-3.466-.661C1445.777,1366.207,1445.483,1366.657,1444.784,1367.688ZM927.77,1335.177a6.623,6.623,0,0,0-1.16.81c.209.283.4.544.627.876.368-.3.751-.6,1.119-.93-.186-.248-.413-.76-.564-.76A.061.061,0,0,0,927.77,1335.177Zm68.636-.933c-.04.22.349.546.544.83.2-.562.4-1.1.6-1.64-.237-.307-.432-.591-.627-.851A9.672,9.672,0,0,0,996.406,1334.244Zm-5.275-3.54c-.086,1.092-.225,2.185-.242,3.3-.011.266.435.833.558.781.41-.182,1.081-.565,1.091-.929a24.6,24.6,0,0,0-.308-3.281C991.859,1330.609,991.5,1330.645,991.131,1330.7Zm-25.485-4.633c-.756,1.427-2.067,2.241-2.362,4.477,1.284.565,1.6,3.266,3.317,3,3.889-4.355,4.209-5.381,2.386-7.551C967.874,1326.026,966.76,1326.06,965.646,1326.071Zm18.112,5.659c1.6,1.572,2.7,2.264,3.406-.468a1.882,1.882,0,0,0-1.407-.887C985.165,1330.375,984.525,1330.817,983.758,1331.73Zm-12.039-2.12a4.576,4.576,0,0,0,1.176.762c.124.044.366-.519.555-.815q-.581-.418-1.121-.837C972.1,1329.065,971.894,1329.338,971.718,1329.61Zm-24.189-4.287c.894,1.4,1.662,2.611,2.43,3.8.895-1.335,1.707-2.545,2.507-3.731-.839-1.305-1.461-3.029-2.907-3.323C948.828,1323.226,948.125,1324.361,947.529,1325.323Zm6.8,2.355c.2.26.435.809.571.757a4.991,4.991,0,0,0,1.161-.811c-.2-.26-.391-.545-.627-.876C955.082,1327.05,954.7,1327.376,954.331,1327.678Zm-20.6-7.229c.13.577.387,1.537.635,1.553a8.668,8.668,0,0,0,2.291-.482l-.057-1.571a15.787,15.787,0,0,0-2.327-.315h-.008C934.068,1319.634,933.687,1320.26,933.729,1320.449Zm366.341-3.806c.212.526.437,1.051.635,1.578.2-.273.572-.623.542-.84a8.264,8.264,0,0,0-.566-1.628C1300.5,1316.025,1300.315,1316.3,1300.07,1316.643Zm-361.171-.418c1.014,1.082,1.964,1.125,3.2-.583-.175-1.108-.368-2.481-.661-4.36C940.452,1313.393,939.057,1314.139,938.9,1316.225Zm-7.3-2.776c1.173,1.755,2.341,1.718,3.478-.107-.574-.86-1.148-1.29-1.717-1.29Q932.468,1312.052,931.6,1313.449Zm22.8-3.559c.2.526.423,1.052.621,1.6.2-.3.572-.647.542-.84A8.115,8.115,0,0,0,955,1309C954.822,1309.272,954.633,1309.568,954.4,1309.89Zm3.374.477c2.236.98,2.318,1.015,3.034-1.472a2.953,2.953,0,0,1-.922-.053,4.309,4.309,0,0,0-.668-.072C958.619,1308.769,958.081,1309.046,957.776,1310.367Zm3.312-1.554-.019.008c.061.082.122.167.186.253l1.385-1.785c-.181-.261-.363-.521-.544-.758A7.3,7.3,0,0,0,961.088,1308.812Zm-20.434-28.939c-.233.056-.392.569-.651.915,1.892,2.168,2.987,5.812,5.8,6.282.72-.917,1.33-1.735,2-2.6.585.733,1.2,1.512,1.811,2.316a3.29,3.29,0,0,1,1.351-.1,2.9,2.9,0,0,0,3.048-1.391c-.814-1.645.851-4.286-1.078-6.065l-5.114.158c-.638.842-1.221,1.634-1.777,2.4-.7-.85-1.336-1.6-1.976-2.383C942.892,1279.537,941.765,1279.645,940.654,1279.873Zm-21.7-4.533a6.526,6.526,0,0,0-1.434.988c.8,3.508,3.537,3.061,4.944,4.856.193,1.373.355,2.481.766,5.155,1.27-2.314,2.054-3.694,2.823-5.1-.5-.631-6.69-5.9-7.089-5.9Zm12.944,4.514a8.821,8.821,0,0,1-1.5,2.466c-.736.627-2.208-.731-2.3,2.636,3.065-.1,6.09-.14,9.127-.33.3-.033.568-.985.852-1.479-.837-1.159-1.66-2.272-2.454-3.408Zm-20.745.628a2.172,2.172,0,0,0,2.522-.961c.868-2.543-.437-3.738-1.5-5.181.541-.887,1.083-1.751,1.651-2.688-.273-1.129.655-3.287.572-3.284-2.833,2.749-4.508,4.374-6.034,5.848.6,2.643-.321,4.971,1.287,6.324a2.152,2.152,0,0,1,.738-.115A6.789,6.789,0,0,1,911.15,1280.481Zm570.906-1.784c.211.5.423,1.051.635,1.578.19-.3.571-.623.528-.839a9,9,0,0,0-.553-1.653C1482.476,1278.056,1482.286,1278.352,1482.056,1278.7Zm-559.218-5.2c.13.6.386,1.537.634,1.553a7.69,7.69,0,0,0,2.291-.458l-.057-1.571a19.307,19.307,0,0,0-2.327-.315C923.188,1272.717,922.8,1273.333,922.838,1273.5Zm593.039-3.737a4.891,4.891,0,0,0-1.147.81c.2.26.377.544.627.876.355-.3.737-.627,1.105-.93-.186-.248-.413-.76-.564-.76A.056.056,0,0,0,1515.877,1269.765Zm36.967-7.82c.2.26.435.81.571.757a4.954,4.954,0,0,0,1.161-.81c-.182-.285-.391-.545-.627-.852Q1553.416,1261.455,1552.844,1261.945Zm17.922-6.482c-.921,1.456-1.665,2.641-2.491,3.949.314,1.175.6,2.256.871,3.24l1.911-.059q.9-1.226,1.831-2.524l25.94-.8c.809-1.6,2.286-2.466,2.631-5.115-.254-.645-.648-1.577-1.113-2.724-1.626,1.066-3.12,2.9-4.524,2.753-1.913-.231-2.8,1.95-4.253,2.382-.474-.639-.878-1.183-1.255-1.7Zm36.423-3.084c-1.351,1.058-2.73,2.118-4.19,3.275.26,1.2.491,2.308.722,3.366,1.282-1.1,2.386-2.058,3.38-2.911.976,1.229,1.6,2.031,2.215,2.835l5.127-.158c.625-.842,1.208-1.634,1.778-2.379.64.755,1.224,1.439,1.642,1.91,1.076-.976,1.962-1.827,2.875-2.654.918,1.012,1.571,1.742,2.239,2.5a13.673,13.673,0,0,1,2.563-2.137,16.506,16.506,0,0,1,3.237-.825c.1-.028.146-.562.2-.781-.81-1.184-1.619-2.345-2.4-3.459l-3.464.107c-.64-.8-1.239-1.583-1.811-2.316-.664.892-1.289,1.71-1.859,2.429a8.308,8.308,0,0,0-1.045.034c-1.424.108-2.855.216-3.986-2.662C1612.382,1253.259,1609.313,1250.378,1607.189,1252.379Zm14.792-7.256c-.473-.566-.947-1.132-1.369-.733-.418-1.922-.313-3.862-1.795-2.122.473.566.946,1.132,1.368.732C1620.6,1244.923,1620.485,1246.863,1621.981,1245.123Zm21.221-3.729c.212.5.41,1.028.635,1.578.19-.3.572-.647.528-.839a10.12,10.12,0,0,0-.553-1.652C1643.609,1240.753,1643.432,1241.049,1643.2,1241.394Zm-9.08.861a5.118,5.118,0,0,0-1.6-1.427l-.063-6.29c-1.564-1.04-3.142-2.081-5.025-3.353l.063,6.362c.781,1.065,1.6,2.225,2.4,3.362a3.055,3.055,0,0,0,2.413-.777C1632.717,1242.057,1632.626,1244,1634.122,1242.256Zm-705.2-.085-.058-1.571a15.41,15.41,0,0,0-2.327-.315c-.193-.019-.585.623-.542.815.115.553.386,1.536.634,1.529A7.817,7.817,0,0,0,928.921,1242.171Zm662.239-1.735a10.2,10.2,0,0,0,.566,1.652c.19-.3.572-.623.528-.839a8.987,8.987,0,0,0-.553-1.653C1591.511,1239.893,1591.13,1240.243,1591.16,1240.436Zm-616.625-.81c.211.526.423,1.051.635,1.6.2-.3.571-.622.542-.839a9.025,9.025,0,0,0-.567-1.652C974.955,1239.032,974.765,1239.3,974.534,1239.626Zm-7.211-1.883c1.173,1.73,2.341,1.694,3.478-.107-.574-.859-1.148-1.29-1.717-1.29Q968.194,1236.346,967.324,1237.743Zm647.8-.1c.374.279.762.557,1.122.836.245-.322.42-.617.61-.89a4.433,4.433,0,0,0-1.176-.738l-.015,0C1615.528,1236.845,1615.309,1237.377,1615.127,1237.64Zm-645.308-6.169a13.273,13.273,0,0,0-2.318.508c3.6,2.018,3.595,1.946,4.838-.149a14.876,14.876,0,0,0-2.4-.36Zm-10-4.652c-.409.376-.844.8-1.266,1.225.795,1.113,1.589,2.226,2.4,3.338,1.568.1,3.257,1.255,4.69-1.282a10.525,10.525,0,0,1-2.984-1.384c-.8-.694-1.342-1.985-2.361-1.985A1.432,1.432,0,0,0,959.817,1226.819Zm679.874,3.02c-.04.219.348.522.544.806.215-.539.4-1.1.6-1.616l-.627-.876A10.484,10.484,0,0,0,1639.691,1229.839Zm-657.667-8.593c1.617,2.248,3.263,4.521,4.921,6.792.1.118.412-.085.6-.14.379-3.326.379-3.326-3.929-9.316a3.373,3.373,0,0,1-1.521.059,2.278,2.278,0,0,0-2.553.914c.13,1.687.836,1.642,1.557,1.6.115-.007.231-.014.345-.014A1.312,1.312,0,0,1,982.024,1221.246Zm-13.41,1.115c.344,1.393.674,2.811,1.018,4.2a4.021,4.021,0,0,1,1.6-.167,2.851,2.851,0,0,0,2.95-1.353c-.1-1.522-.213-3.43-.4-5.312-.031-.338-.364-.593-.517-.831-2.351.073-4.62.118-6.9.238-.22.006-.408.5-.638.77-.087,1.922.69,1.791,1.464,1.66a3.548,3.548,0,0,1,.573-.067C968.171,1221.5,968.505,1221.667,968.614,1222.361Zm9.317,2.181a10.3,10.3,0,0,0,.567,1.652c.19-.3.379-.569.61-.89-.211-.526-.423-1.052-.635-1.6C978.284,1224,977.9,1224.349,977.931,1224.542Zm668.652.124c-.025.194.349.521.558.781l.6-1.615c-.251-.331-.433-.591-.628-.877A9.031,9.031,0,0,0,1646.583,1224.666Zm3.119-18.173a16.149,16.149,0,0,0,1.695,1.763,23.44,23.44,0,0,0-1.655,3.632c1.952,2.7,3.974,5.491,6.233,8.616,1.166-3.085.2-6.419.967-9.3a13.007,13.007,0,0,0,1.224-4.1c.071-1.164-.626-2.158-1.681-1.836.051,1.7-.517,2.557-1.723,2.522-.185.683-.283,1.9-.557,2-1.034.368-1.215-.723-1.175-1.924a2.75,2.75,0,0,0-1.632.39c-.21-1.127-.214-2.449-.764-2.449C1650.42,1205.807,1650.125,1206.006,1649.7,1206.493Zm-701.426,4.881c-.012.218.363.545.559.83.2-.563.4-1.1.589-1.64-.224-.332-.419-.592-.614-.877A10.625,10.625,0,0,0,948.277,1211.374Zm22.718-2.637c-1.342.6-2.691.445-1.5,2.587.4-.689.8-1.38.53-2,1.342-.573,2.69-.446,1.5-2.587C971.119,1207.427,970.714,1208.116,970.995,1208.737Zm671.454-1.56a12.93,12.93,0,0,0-1.695-1.763C1641.058,1206.978,1640.954,1208.917,1642.449,1207.177Zm24.254-5.734a13.748,13.748,0,0,0-1.695-1.762C1665.312,1201.244,1665.208,1203.184,1666.7,1201.443Zm-29.372-6.958c.018.411.668.754,1.042,1.105.712-1.691,2.384-2.324,2.335-5.9-.988-1.13-1.556-2.976-3.514-3.448C1637.222,1189.068,1637.207,1191.779,1637.33,1194.485Zm-15.419-7.34c-.307,2.332-.93,4.7.729,6.922.355-1.56.644-2.948,1.145-5.189,4.632-.192,4.632-.192,6.51-2.161a10.184,10.184,0,0,0-2.631-.427,10,10,0,0,1-1.885.007c-.353-.021-.706-.041-1.057-.041A4.163,4.163,0,0,0,1621.912,1187.146Zm-3.441,5.188a10.2,10.2,0,0,0,.566,1.652c.19-.273.38-.569.6-.914-.2-.5-.409-1.052-.62-1.553C1618.823,1191.79,1618.441,1192.141,1618.471,1192.333Zm-674-8.259c.223.332.419.592.627.877a12.166,12.166,0,0,0,.52-1.687c.025-.218-.364-.545-.544-.806C944.859,1183,944.658,1183.56,944.471,1184.074Zm10.054-8.126c1.78,2.026,3.526,1.972,5.265-.163a3.582,3.582,0,0,0-2.579-1.48A3.638,3.638,0,0,0,954.525,1175.948Zm623.7-6.45c.237.308.432.592.627.852a10.659,10.659,0,0,0,.519-1.686c.025-.194-.349-.522-.544-.782Zm5.032-8.358a18.5,18.5,0,0,1,1.575,3.532c.375,1.8-.454,4.055,1,5.486a7.952,7.952,0,0,1,1.992-.078,5.034,5.034,0,0,0,3.884-.974l-.055-5.468c-.906-1.3-1.688-2.464-2.47-3.553a8.521,8.521,0,0,1-2.009.064c-.3-.014-.6-.028-.894-.028A4.3,4.3,0,0,0,1583.26,1161.14Zm27.412,3.461c.31,2.168.472,3.276.695,4.915,1.207-.376,2.181-.648,3.263-1-.25-1.638-.412-2.746-.59-4.023Zm-17.289-8.734c.123,2.706.193,4.277.261,5.485,1.771,2.535,3.659,4.388,3.766,8.087,1.6-1.017,2.569-1.628,3.539-2.238,1.817-1.193,2.794,1.559,4.5,1.966.112-1.189.211-2.3.325-3.3a35.108,35.108,0,0,1-3.125-4.453,22.346,22.346,0,0,1-1.186-4.513l-4.042.124c-.458-1.8-.8-3.218-.988-3.962C1595.291,1154.09,1594.119,1155.166,1593.383,1155.866Zm14.082,9.874a4.236,4.236,0,0,0,1.163.738c.152.044.394-.5.57-.792-.374-.278-.762-.581-1.122-.836C1607.846,1165.172,1607.656,1165.469,1607.466,1165.74Zm-32.138-.242a3.777,3.777,0,0,0-.049-4.983A3.777,3.777,0,0,0,1575.328,1165.5Zm36.714-5.634a5.129,5.129,0,0,0-1.161.786c.21.284.435.833.586.78a5.391,5.391,0,0,0,1.16-.834c-.2-.247-.412-.735-.563-.735A.061.061,0,0,0,1612.041,1159.864Zm-1.043-9.478c-.06.8-.122,1.577-.2,2.425,1.329,3.71,4.234,4.08,6.773,6.349.105-1.839.186-3.362.2-4.909-2.742.433-.966-4.316-2.758-4.91a3.319,3.319,0,0,1-1.486.065,6.96,6.96,0,0,0-.733-.052A1.95,1.95,0,0,0,1611,1150.386Zm6.853,3.789c1.681-1.464,1.67-1.512.879-4.729C1616.909,1150.41,1618.031,1152.578,1617.852,1154.175Zm-18.464-4.351c.8-.169,1.741-.441,1.92-.47-.523-1.485-1.1-3.137-1.712-4.836C1598.255,1146.641,1598.337,1147.994,1599.387,1149.825Zm-12.625-2.925c-.04.219.349.545.545.805.214-.539.4-1.1.6-1.615l-.627-.876A10.472,10.472,0,0,0,1586.762,1146.9Zm12.682-27.228c.934-1.48.851-2.833-.3-4.855C1598.044,1117.1,1597.55,1118.714,1599.444,1119.672Zm-535.913,260.8-17.375.536a4.2,4.2,0,0,1-.462-4.9l3.959-.122c.432.616.837,1.159,1.534,2.13l17.527-.541c.327,1.1.54,1.8.753,2.493l-2.57.079c-.61.842-1.208,1.659-1.8,2.476C1064.633,1381.987,1064.228,1381.418,1063.531,1380.472Zm7.24,2c-.84-.022-1.48-.922-1.317-2.4l2.529-.078c.556-.768,1.139-1.584,1.763-2.45.571.733,1.156,1.464,1.964,2.5l5.279-.163c.284.959.456,1.632.655,2.3-3.543.109-7.073.287-10.616.287Zm-40.382-3.641c-.583.816-1.166,1.633-1.763,2.45-.432-.591-.836-1.136-1.519-2.107a9.759,9.759,0,0,0-4.38-.192,10.423,10.423,0,0,1-5.376-.427c2.671-2.429,4.018-2.568,15.619-1.595-.123,1.431-.233,2.814-.379,4.706C1031.573,1380.394,1030.988,1379.614,1030.388,1378.833Zm8.031,1.325c.688-2.731,1.808-2.016,3.391-.468-.777.915-1.413,1.365-2,1.365A1.856,1.856,0,0,1,1038.419,1380.158Zm-3.688-.274a5.874,5.874,0,0,1,1.161-.81c.137-.052.376.5.571.757-.368.326-.75.628-1.1.93C1035.122,1380.429,1034.926,1380.169,1034.731,1379.885Zm-20.621-2.194c.244-.346.42-.618.624-.914a10.21,10.21,0,0,1,.553,1.652c.03.217-.338.567-.528.839C1014.533,1378.742,1014.335,1378.192,1014.11,1377.69Zm541.384-15.428c-.735.749-1.607,1.647-2.56,2.62-1.081-.814-.971-2.269-.628-3.707.257-.419.457-.982.65-.988,6.943-.239,13.884-.453,20.786-.666.624-.841,1.221-1.634,1.818-2.452.46.639.864,1.208,1.491,2.059l10.819-.334c.42-.593.813-1.21,1.287-1.9.846.675,1.706,1.4,2.926,2.378.749-.749,1.62-1.647,2.763-2.82l3.162-.1c1.431,1.456,1.31,3.13.117,4.885-.6-.78-1.211-1.56-1.824-2.316-.461.668-.868,1.261-1.558,2.3l-32.828,1.013c-1.046,1.291-1.684,2.06-2.553,3.127C1558.184,1364.43,1557.019,1363.5,1555.494,1362.263Zm-612.926-7.6c.878-.269,1.659-.511,2.824-.861.221,1.542.4,2.915.652,4.626-1.138.349-1.92.591-3.427,1.049Zm657.8,3.1c.856-1.042,1.057-1.533,1.278-1.539q4.288-.205,8.563-.265c.193-.006.4.52.614.828-1.294,1.167-1.835,1.655-3.689,1.655A67.3,67.3,0,0,1,1600.373,1357.755Zm26.183-2.7c-.762.847-1.6,1.792-2.476,2.739-.529-.661-1.156-1.465-1.768-2.245l-6.008.185c.006-.026.014-.051.02-.077-1.041,2.648-1.117,2.615-3.345,1.632.4-1.6,1.148-1.582,1.954-1.561a2.13,2.13,0,0,0,1.458-.323c.158-.6.324-1.226.537-1.988l20.922-.646c.542-.815.949-1.408,1.558-2.3a5.818,5.818,0,0,1,3.728-.564,9.784,9.784,0,0,0,2.633-.068c-.186.707-.244,1.774-.6,2.051a48.637,48.637,0,0,1-4.619,2.949l-7.244.224c-1.007,1.048-1.865,1.969-2.831,2.966C1629.229,1357.107,1628.066,1356.224,1626.556,1355.06Zm-690.206-.789a15.436,15.436,0,0,1-2.327-.315c-.019-.532-.038-1.064-.07-1.571a7.87,7.87,0,0,1,2.306-.458c.247-.007.5.952.634,1.529.042.19-.338.815-.534.815Zm716.639-3.051c.2-.515.388-1.076.589-1.615.2.26.583.587.558.806a10.548,10.548,0,0,1-.533,1.687Zm-6.023-1.408a2.126,2.126,0,0,0-1.2.034c.992-2.571.992-2.571,3.3-1.553-.307,1.315-.847,1.588-1.448,1.588A4.356,4.356,0,0,1,1646.965,1349.811Zm9.325-1.113c1.388-1.88,3-1.666,4.586-1.452a7.409,7.409,0,0,0,2.221.08,3.856,3.856,0,0,1-3.313,1.946A32.057,32.057,0,0,1,1656.29,1348.7Zm13.344-6.437c-.033,2.227-1.511,2.926-2.211,4.423l-4.316.133C1664.606,1344.231,1667.542,1342.107,1669.633,1342.261Zm-771.224-7.437c1.387-1.567,1.891-3.494,3.523-3.932.148,1.133.311,2.217.682,4.94C900.684,1335.383,899.718,1335.147,898.409,1334.824Zm-7.8-11.036c.013-.02.543-.886,1.1-1.751a38.135,38.135,0,0,1-3.629-2.55c-1.151-1.03-1.764-3.189-3.235-3.143-.3-1.443-.2-3.358-1.695-1.642a8.029,8.029,0,0,0,1.695,1.642,37.386,37.386,0,0,0-.073,3.753c-.67.408-1.381.841-2.583,1.579-.736-1.354-1.484-2.726-2.3-4.208l-.187-10.673c.808-.177,1.9-.875,2.316-.383,1.935,2.312,3.694,4.944,5.743,7.76,1.091-.977,1.99-1.828,3.407-3.106.758,1.526,1.7,3.457,2.358,4.767l2.846-.088.631,3.949c-1.34.792-2.325,1.379-3.308,1.966.662,1.624,1.283,3.179,2.016,4.971-1.01.83-1.678,1.383-3.028,2.514C892.01,1327.4,891.318,1325.606,890.612,1323.788Zm7.747.536c1.483-1.595,2.816-3.039,4.381-4.709-.916-2.222-1.579-3.848-2.381-5.758l-.044-4.451c1.423-2.1,2.818-4.176,4.227-6.277,1.008,1.784,2.983,2.594,2.66,6.04-1,.733-2.129,1.566-3.249,2.375-.961,2.957,1.168,4.15,1.925,5.579-2.227,5.537-3.581,7.66-5.54,8.4a.312.312,0,0,1-.119.023C899.829,1325.543,899.285,1324.908,898.359,1324.324Zm5.343-2c.849.99,1.321,1.533,1.795,2.1-.412.48-.7.682-.917.682C904.021,1325.1,904,1323.713,903.7,1322.32Zm-13.091,1.469h0Zm801.436-5.243c.585-1.008.94-1.632,1.294-2.256.964,1.7.3,1.95-.7,2.292-.59,1.016-.947,1.643-1.3,2.271C1690.371,1319.133,1691.043,1318.877,1692.048,1318.546Zm-782.9-6.267c.768-3,1.875-2.308,3.4-.807-.721,1.04-1.329,1.391-1.9,1.391A3.023,3.023,0,0,1,909.144,1312.279Zm7.682-4.568a9.329,9.329,0,0,1-.649-1.65,13.208,13.208,0,0,1,1.408-.867,1.772,1.772,0,0,1,.782-.073c.262,0,.616.005,1.115-.01-.226,2.233-.349,3.616-.524,5.437C918,1309.271,917.371,1308.565,916.826,1307.711Zm-25.5-27.841c.368-.326.751-.627,1.105-.929.237.331.432.591.627.876a5.809,5.809,0,0,1-1.161.81.046.046,0,0,1-.019,0C891.742,1280.631,891.516,1280.12,891.329,1279.87Zm757.266-9.193c.878-.269,1.659-.511,2.811-.861.235,1.542.414,2.915.664,4.626-1.138.349-1.919.591-3.427,1.049Zm-757.437.487-6.088.188c-.67-1.044-1.425-2.255-2.626-4.129,1.2-1.127,2.56-2.426,3.01-2.852.672-2.852-.02-4.742,1.666-5.254l1.13,4.321c1.309.177,2.658.329,3.965.507.67.923.67.923-1.009,3.564l.031,3.2c.721.842,1.154,1.361,1.587,1.878-.409.47-.7.667-.912.667C891.444,1273.256,891.347,1272.293,891.158,1271.165Zm784.506.2a5.862,5.862,0,0,1-1.176-.738l.624-.914c.346.28.734.558,1.109.861-.186.267-.4.791-.548.792Zm-22.98-11.269a3.81,3.81,0,0,1,.049,4.984A3.81,3.81,0,0,1,1652.684,1260.1Zm11.211-.344c-1.031.042-1.589-.608-1.672-1.967-.733-.856-1.17-1.379-1.619-1.9,1.312-1.506,1.4-.216,1.677,1.423,1.037-.044,1.6.607,1.679,1.972.72.85,1.156,1.351,1.606,1.873-.413.481-.7.682-.92.682C1664.179,1261.834,1664.078,1260.876,1663.9,1259.753Zm-6.323-4.477c1.907.958,1.414,2.569.31,4.854C1656.735,1258.133,1656.653,1256.756,1657.573,1255.277Zm4.824-11.232a9.452,9.452,0,0,1,.534-1.687c.2.284.376.545.627.877-.2.514-.4,1.076-.6,1.615C1662.746,1244.59,1662.372,1244.264,1662.4,1244.045Zm17.717-6.331c2-.618,2.755-.884,3.742-1.18.426-1.417.932-3.127,1.424-4.787l1.828-.057c1.85,2.17-.991,2.717-.837,4.358.153,1.544.059,3.119.071,4.353-.406.617-.609.914-.8,1.211C1684.561,1239.538,1682.841,1239.445,1680.115,1237.714Zm-6,.6c-.381-.932-1.238-1.462-2.546-2.921,1.811-.444,2.785-.667,3.622-.886a9.31,9.31,0,0,1,.167,7.109C1673.647,1241.447,1674.548,1239.362,1674.112,1238.311Zm-15.3-4.948c-.029-.217.353-.543.542-.84a10.256,10.256,0,0,1,.554,1.653c.043.216-.339.543-.528.839A9.09,9.09,0,0,1,1658.812,1233.363Zm15.257-6.254c-.3,1.606.89,3.82-.956,4.8C1672.31,1228.639,1672.31,1228.639,1674.068,1227.109Zm20.436-.516c.648-1.113,1.023-1.773,1.4-2.433,1.048,1.884.14,2.01-1.007,2.4l.034,3.384c-.606,1.685-1.374,1.618-2.3,1.553a3.982,3.982,0,0,0-1.31.059C1692.312,1228.905,1693.087,1227.177,1694.5,1226.593Zm9.033-2.486c-.707-.824-1.135-1.317-1.576-1.828,1.2-1.4,1.379-.433,1.613,1,.707.827,1.136,1.338,1.564,1.829-.413.481-.7.682-.917.682C1703.813,1225.791,1703.69,1225.049,1703.538,1224.107Zm-745.745-12.664a5.919,5.919,0,0,1-1.176-.738l.609-.914c.361.279.762.557,1.137.86-.2.263-.4.795-.553.795Zm716.259-10.807c.23-.346.419-.618.609-.914a8.982,8.982,0,0,1,.553,1.653c.044.216-.338.567-.527.839C1674.461,1201.664,1674.263,1201.137,1674.052,1200.636Zm-17.706-9.06q1.705-2.739,3.479-.107-.88,1.4-1.766,1.4Q1657.207,1192.865,1656.347,1191.576Zm15.542-7.932c1.151-1.826,2.3-1.862,3.492-.108q-.88,1.4-1.768,1.4Q1672.758,1184.932,1671.889,1183.643Zm2.525-8.789a3.778,3.778,0,0,1,.049,4.983A3.778,3.778,0,0,1,1674.414,1174.854Zm-86.056-8.548c.19-.272.419-.811.556-.767a4.348,4.348,0,0,1,1.176.714c-.19.3-.38.568-.61.914C1589.12,1166.887,1588.732,1166.609,1588.358,1166.306Zm41.63-4.987c1.788,1.421,1.788,1.421,1.065,4.734C1629.174,1165.191,1630.319,1162.905,1629.987,1161.319Zm-703.016,2.606c-.043-.193.325-.543.528-.839a10.2,10.2,0,0,1,.566,1.651c.016.218-.352.568-.541.84A8.979,8.979,0,0,1,926.971,1163.925Zm701.281-5.65c.084-1.261.624-2.2,1.686-1.939l.049,4.983a2.181,2.181,0,0,1-.288.021C1628.339,1161.339,1628.138,1159.844,1628.252,1158.275Zm-17.769-37.419c1.138-1.825,2.306-1.861,3.479-.107-.58.932-1.168,1.4-1.76,1.4Q1611.347,1122.145,1610.483,1120.855Zm0-8.117c-.78-.911-1.233-1.453-1.686-1.994,1.313-1.528,1.393-.22,1.667,1.425l2.363-.074c1.511,1.261,1.431,2.86.445,4.657A6.388,6.388,0,0,1,1610.487,1112.738Z" fill="#ff2005"/>
    </g>
  </g>
</svg>
